<?xml version="1.0" encoding="utf-8" standalone="no"?>
<!DOCTYPE svg PUBLIC "-//W3C//DTD SVG 1.1//EN"
  "http://www.w3.org/Graphics/SVG/1.1/DTD/svg11.dtd">
<svg xmlns:xlink="http://www.w3.org/1999/xlink" width="777.215607pt" height="568.014063pt" viewBox="0 0 777.215607 568.014063" xmlns="http://www.w3.org/2000/svg" version="1.1">
 <metadata>
  <rdf:RDF xmlns:dc="http://purl.org/dc/elements/1.1/" xmlns:cc="http://creativecommons.org/ns#" xmlns:rdf="http://www.w3.org/1999/02/22-rdf-syntax-ns#">
   <cc:Work>
    <dc:type rdf:resource="http://purl.org/dc/dcmitype/StillImage"/>
    <dc:date>2026-03-31T22:15:29.720762</dc:date>
    <dc:format>image/svg+xml</dc:format>
    <dc:creator>
     <cc:Agent>
      <dc:title>Matplotlib v3.10.8, https://matplotlib.org/</dc:title>
     </cc:Agent>
    </dc:creator>
   </cc:Work>
  </rdf:RDF>
 </metadata>
 <defs>
  <style type="text/css">*{stroke-linejoin: round; stroke-linecap: butt}</style>
 </defs>
 <g id="figure_1">
  <g id="patch_1">
   <path d="M 0 568.014063 
L 777.215607 568.014063 
L 777.215607 0 
L 0 0 
z
" style="fill: #ffffff"/>
  </g>
  <g id="axes_1">
   <g id="patch_2">
    <path d="M 42.225625 281.214138 
L 360.439911 281.214138 
L 360.439911 97.49 
L 42.225625 97.49 
z
" style="fill: #ffffff"/>
   </g>
   <g id="matplotlib.axis_1">
    <g id="xtick_1">
     <g id="line2d_1">
      <path d="M 56.689911 281.214138 
L 56.689911 97.49 
" clip-path="url(#pfef8e413b3)" style="fill: none; stroke: #b0b0b0; stroke-opacity: 0.18; stroke-width: 0.6; stroke-linecap: square"/>
     </g>
     <g id="line2d_2">
      <defs>
       <path id="m1eee46c68a" d="M 0 0 
L 0 3.5 
" style="stroke: #000000; stroke-width: 0.8"/>
      </defs>
      <g>
       <use xlink:href="#m1eee46c68a" x="56.689911" y="281.214138" style="stroke: #000000; stroke-width: 0.8"/>
      </g>
     </g>
     <g id="text_1">
      <!-- 0.00 -->
      <g transform="translate(45.557098 295.812575) scale(0.1 -0.1)">
       <defs>
        <path id="DejaVuSerif-30" d="M 2034 219 
Q 2513 219 2750 744 
Q 2988 1269 2988 2328 
Q 2988 3391 2750 3916 
Q 2513 4441 2034 4441 
Q 1556 4441 1318 3916 
Q 1081 3391 1081 2328 
Q 1081 1269 1318 744 
Q 1556 219 2034 219 
z
M 2034 -91 
Q 1275 -91 848 546 
Q 422 1184 422 2328 
Q 422 3475 848 4112 
Q 1275 4750 2034 4750 
Q 2797 4750 3222 4112 
Q 3647 3475 3647 2328 
Q 3647 1184 3222 546 
Q 2797 -91 2034 -91 
z
" transform="scale(0.015625)"/>
        <path id="DejaVuSerif-2e" d="M 603 325 
Q 603 500 722 622 
Q 841 744 1019 744 
Q 1191 744 1312 622 
Q 1434 500 1434 325 
Q 1434 153 1312 31 
Q 1191 -91 1019 -91 
Q 841 -91 722 29 
Q 603 150 603 325 
z
" transform="scale(0.015625)"/>
       </defs>
       <use xlink:href="#DejaVuSerif-30"/>
       <use xlink:href="#DejaVuSerif-2e" transform="translate(63.623047 0)"/>
       <use xlink:href="#DejaVuSerif-30" transform="translate(95.410156 0)"/>
       <use xlink:href="#DejaVuSerif-30" transform="translate(159.033203 0)"/>
      </g>
     </g>
    </g>
    <g id="xtick_2">
     <g id="line2d_3">
      <path d="M 99.810935 281.214138 
L 99.810935 97.49 
" clip-path="url(#pfef8e413b3)" style="fill: none; stroke: #b0b0b0; stroke-opacity: 0.18; stroke-width: 0.6; stroke-linecap: square"/>
     </g>
     <g id="line2d_4">
      <g>
       <use xlink:href="#m1eee46c68a" x="99.810935" y="281.214138" style="stroke: #000000; stroke-width: 0.8"/>
      </g>
     </g>
     <g id="text_2">
      <!-- 0.02 -->
      <g transform="translate(88.678122 295.812575) scale(0.1 -0.1)">
       <defs>
        <path id="DejaVuSerif-32" d="M 819 3553 
L 469 3553 
L 469 4384 
Q 803 4563 1142 4656 
Q 1481 4750 1806 4750 
Q 2534 4750 2956 4397 
Q 3378 4044 3378 3438 
Q 3378 2753 2422 1800 
Q 2347 1728 2309 1691 
L 1131 513 
L 3078 513 
L 3078 1088 
L 3444 1088 
L 3444 0 
L 434 0 
L 434 341 
L 1850 1753 
Q 2319 2222 2519 2614 
Q 2719 3006 2719 3438 
Q 2719 3909 2473 4175 
Q 2228 4441 1797 4441 
Q 1350 4441 1106 4219 
Q 863 3997 819 3553 
z
" transform="scale(0.015625)"/>
       </defs>
       <use xlink:href="#DejaVuSerif-30"/>
       <use xlink:href="#DejaVuSerif-2e" transform="translate(63.623047 0)"/>
       <use xlink:href="#DejaVuSerif-30" transform="translate(95.410156 0)"/>
       <use xlink:href="#DejaVuSerif-32" transform="translate(159.033203 0)"/>
      </g>
     </g>
    </g>
    <g id="xtick_3">
     <g id="line2d_5">
      <path d="M 142.931959 281.214138 
L 142.931959 97.49 
" clip-path="url(#pfef8e413b3)" style="fill: none; stroke: #b0b0b0; stroke-opacity: 0.18; stroke-width: 0.6; stroke-linecap: square"/>
     </g>
     <g id="line2d_6">
      <g>
       <use xlink:href="#m1eee46c68a" x="142.931959" y="281.214138" style="stroke: #000000; stroke-width: 0.8"/>
      </g>
     </g>
     <g id="text_3">
      <!-- 0.04 -->
      <g transform="translate(131.799147 295.812575) scale(0.1 -0.1)">
       <defs>
        <path id="DejaVuSerif-34" d="M 2234 1581 
L 2234 4063 
L 641 1581 
L 2234 1581 
z
M 3609 0 
L 1484 0 
L 1484 331 
L 2234 331 
L 2234 1247 
L 197 1247 
L 197 1588 
L 2241 4750 
L 2859 4750 
L 2859 1581 
L 3750 1581 
L 3750 1247 
L 2859 1247 
L 2859 331 
L 3609 331 
L 3609 0 
z
" transform="scale(0.015625)"/>
       </defs>
       <use xlink:href="#DejaVuSerif-30"/>
       <use xlink:href="#DejaVuSerif-2e" transform="translate(63.623047 0)"/>
       <use xlink:href="#DejaVuSerif-30" transform="translate(95.410156 0)"/>
       <use xlink:href="#DejaVuSerif-34" transform="translate(159.033203 0)"/>
      </g>
     </g>
    </g>
    <g id="xtick_4">
     <g id="line2d_7">
      <path d="M 186.052983 281.214138 
L 186.052983 97.49 
" clip-path="url(#pfef8e413b3)" style="fill: none; stroke: #b0b0b0; stroke-opacity: 0.18; stroke-width: 0.6; stroke-linecap: square"/>
     </g>
     <g id="line2d_8">
      <g>
       <use xlink:href="#m1eee46c68a" x="186.052983" y="281.214138" style="stroke: #000000; stroke-width: 0.8"/>
      </g>
     </g>
     <g id="text_4">
      <!-- 0.06 -->
      <g transform="translate(174.920171 295.812575) scale(0.1 -0.1)">
       <defs>
        <path id="DejaVuSerif-36" d="M 2094 219 
Q 2534 219 2771 542 
Q 3009 866 3009 1472 
Q 3009 2078 2771 2401 
Q 2534 2725 2094 2725 
Q 1647 2725 1412 2412 
Q 1178 2100 1178 1509 
Q 1178 888 1415 553 
Q 1653 219 2094 219 
z
M 1075 2569 
Q 1288 2803 1556 2918 
Q 1825 3034 2163 3034 
Q 2859 3034 3264 2615 
Q 3669 2197 3669 1472 
Q 3669 763 3233 336 
Q 2797 -91 2069 -91 
Q 1278 -91 853 498 
Q 428 1088 428 2181 
Q 428 3406 931 4078 
Q 1434 4750 2350 4750 
Q 2597 4750 2869 4703 
Q 3141 4656 3425 4563 
L 3425 3794 
L 3072 3794 
Q 3034 4109 2831 4275 
Q 2628 4441 2284 4441 
Q 1678 4441 1381 3981 
Q 1084 3522 1075 2569 
z
" transform="scale(0.015625)"/>
       </defs>
       <use xlink:href="#DejaVuSerif-30"/>
       <use xlink:href="#DejaVuSerif-2e" transform="translate(63.623047 0)"/>
       <use xlink:href="#DejaVuSerif-30" transform="translate(95.410156 0)"/>
       <use xlink:href="#DejaVuSerif-36" transform="translate(159.033203 0)"/>
      </g>
     </g>
    </g>
    <g id="xtick_5">
     <g id="line2d_9">
      <path d="M 229.174007 281.214138 
L 229.174007 97.49 
" clip-path="url(#pfef8e413b3)" style="fill: none; stroke: #b0b0b0; stroke-opacity: 0.18; stroke-width: 0.6; stroke-linecap: square"/>
     </g>
     <g id="line2d_10">
      <g>
       <use xlink:href="#m1eee46c68a" x="229.174007" y="281.214138" style="stroke: #000000; stroke-width: 0.8"/>
      </g>
     </g>
     <g id="text_5">
      <!-- 0.08 -->
      <g transform="translate(218.041195 295.812575) scale(0.1 -0.1)">
       <defs>
        <path id="DejaVuSerif-38" d="M 2981 1275 
Q 2981 1775 2732 2051 
Q 2484 2328 2034 2328 
Q 1584 2328 1336 2051 
Q 1088 1775 1088 1275 
Q 1088 772 1336 495 
Q 1584 219 2034 219 
Q 2484 219 2732 495 
Q 2981 772 2981 1275 
z
M 2853 3541 
Q 2853 3966 2637 4203 
Q 2422 4441 2034 4441 
Q 1650 4441 1433 4203 
Q 1216 3966 1216 3541 
Q 1216 3113 1433 2875 
Q 1650 2638 2034 2638 
Q 2422 2638 2637 2875 
Q 2853 3113 2853 3541 
z
M 2516 2484 
Q 3047 2413 3344 2092 
Q 3641 1772 3641 1275 
Q 3641 619 3225 264 
Q 2809 -91 2034 -91 
Q 1263 -91 845 264 
Q 428 619 428 1275 
Q 428 1772 725 2092 
Q 1022 2413 1556 2484 
Q 1084 2569 832 2842 
Q 581 3116 581 3541 
Q 581 4103 968 4426 
Q 1356 4750 2034 4750 
Q 2713 4750 3100 4426 
Q 3488 4103 3488 3541 
Q 3488 3116 3236 2842 
Q 2984 2569 2516 2484 
z
" transform="scale(0.015625)"/>
       </defs>
       <use xlink:href="#DejaVuSerif-30"/>
       <use xlink:href="#DejaVuSerif-2e" transform="translate(63.623047 0)"/>
       <use xlink:href="#DejaVuSerif-30" transform="translate(95.410156 0)"/>
       <use xlink:href="#DejaVuSerif-38" transform="translate(159.033203 0)"/>
      </g>
     </g>
    </g>
    <g id="xtick_6">
     <g id="line2d_11">
      <path d="M 272.295032 281.214138 
L 272.295032 97.49 
" clip-path="url(#pfef8e413b3)" style="fill: none; stroke: #b0b0b0; stroke-opacity: 0.18; stroke-width: 0.6; stroke-linecap: square"/>
     </g>
     <g id="line2d_12">
      <g>
       <use xlink:href="#m1eee46c68a" x="272.295032" y="281.214138" style="stroke: #000000; stroke-width: 0.8"/>
      </g>
     </g>
     <g id="text_6">
      <!-- 0.10 -->
      <g transform="translate(261.162219 295.812575) scale(0.1 -0.1)">
       <defs>
        <path id="DejaVuSerif-31" d="M 909 0 
L 909 331 
L 1722 331 
L 1722 4213 
L 781 3603 
L 781 4013 
L 1919 4750 
L 2350 4750 
L 2350 331 
L 3163 331 
L 3163 0 
L 909 0 
z
" transform="scale(0.015625)"/>
       </defs>
       <use xlink:href="#DejaVuSerif-30"/>
       <use xlink:href="#DejaVuSerif-2e" transform="translate(63.623047 0)"/>
       <use xlink:href="#DejaVuSerif-31" transform="translate(95.410156 0)"/>
       <use xlink:href="#DejaVuSerif-30" transform="translate(159.033203 0)"/>
      </g>
     </g>
    </g>
    <g id="xtick_7">
     <g id="line2d_13">
      <path d="M 315.416056 281.214138 
L 315.416056 97.49 
" clip-path="url(#pfef8e413b3)" style="fill: none; stroke: #b0b0b0; stroke-opacity: 0.18; stroke-width: 0.6; stroke-linecap: square"/>
     </g>
     <g id="line2d_14">
      <g>
       <use xlink:href="#m1eee46c68a" x="315.416056" y="281.214138" style="stroke: #000000; stroke-width: 0.8"/>
      </g>
     </g>
     <g id="text_7">
      <!-- 0.12 -->
      <g transform="translate(304.283243 295.812575) scale(0.1 -0.1)">
       <use xlink:href="#DejaVuSerif-30"/>
       <use xlink:href="#DejaVuSerif-2e" transform="translate(63.623047 0)"/>
       <use xlink:href="#DejaVuSerif-31" transform="translate(95.410156 0)"/>
       <use xlink:href="#DejaVuSerif-32" transform="translate(159.033203 0)"/>
      </g>
     </g>
    </g>
    <g id="xtick_8">
     <g id="line2d_15">
      <path d="M 358.53708 281.214138 
L 358.53708 97.49 
" clip-path="url(#pfef8e413b3)" style="fill: none; stroke: #b0b0b0; stroke-opacity: 0.18; stroke-width: 0.6; stroke-linecap: square"/>
     </g>
     <g id="line2d_16">
      <g>
       <use xlink:href="#m1eee46c68a" x="358.53708" y="281.214138" style="stroke: #000000; stroke-width: 0.8"/>
      </g>
     </g>
     <g id="text_8">
      <!-- 0.14 -->
      <g transform="translate(347.404268 295.812575) scale(0.1 -0.1)">
       <use xlink:href="#DejaVuSerif-30"/>
       <use xlink:href="#DejaVuSerif-2e" transform="translate(63.623047 0)"/>
       <use xlink:href="#DejaVuSerif-31" transform="translate(95.410156 0)"/>
       <use xlink:href="#DejaVuSerif-34" transform="translate(159.033203 0)"/>
      </g>
     </g>
    </g>
    <g id="text_9">
     <!-- w -->
     <g transform="translate(196.625112 310.250544) scale(0.11 -0.11)">
      <defs>
       <path id="DejaVuSerif-77" d="M 3072 3322 
L 3922 728 
L 4672 2988 
L 4191 2988 
L 4191 3322 
L 5394 3322 
L 5394 2988 
L 5025 2988 
L 4038 0 
L 3559 0 
L 2741 2484 
L 1919 0 
L 1459 0 
L 475 2988 
L 103 2988 
L 103 3322 
L 1606 3322 
L 1606 2988 
L 1069 2988 
L 1813 728 
L 2669 3322 
L 3072 3322 
z
" transform="scale(0.015625)"/>
      </defs>
      <use xlink:href="#DejaVuSerif-77"/>
     </g>
    </g>
   </g>
   <g id="matplotlib.axis_2">
    <g id="ytick_1">
     <g id="line2d_17">
      <path d="M 42.225625 272.863041 
L 360.439911 272.863041 
" clip-path="url(#pfef8e413b3)" style="fill: none; stroke: #b0b0b0; stroke-opacity: 0.18; stroke-width: 0.6; stroke-linecap: square"/>
     </g>
     <g id="line2d_18">
      <defs>
       <path id="mac62f1ec88" d="M 0 0 
L -3.5 0 
" style="stroke: #000000; stroke-width: 0.8"/>
      </defs>
      <g>
       <use xlink:href="#mac62f1ec88" x="42.225625" y="272.863041" style="stroke: #000000; stroke-width: 0.8"/>
      </g>
     </g>
     <g id="text_10">
      <!-- −10 -->
      <g transform="translate(14.120938 276.66226) scale(0.1 -0.1)">
       <defs>
        <path id="DejaVuSerif-2212" d="M 678 2259 
L 4684 2259 
L 4684 1753 
L 678 1753 
L 678 2259 
z
" transform="scale(0.015625)"/>
       </defs>
       <use xlink:href="#DejaVuSerif-2212"/>
       <use xlink:href="#DejaVuSerif-31" transform="translate(83.789062 0)"/>
       <use xlink:href="#DejaVuSerif-30" transform="translate(147.412109 0)"/>
      </g>
     </g>
    </g>
    <g id="ytick_2">
     <g id="line2d_19">
      <path d="M 42.225625 239.458652 
L 360.439911 239.458652 
" clip-path="url(#pfef8e413b3)" style="fill: none; stroke: #b0b0b0; stroke-opacity: 0.18; stroke-width: 0.6; stroke-linecap: square"/>
     </g>
     <g id="line2d_20">
      <g>
       <use xlink:href="#mac62f1ec88" x="42.225625" y="239.458652" style="stroke: #000000; stroke-width: 0.8"/>
      </g>
     </g>
     <g id="text_11">
      <!-- −8 -->
      <g transform="translate(20.483438 243.257871) scale(0.1 -0.1)">
       <use xlink:href="#DejaVuSerif-2212"/>
       <use xlink:href="#DejaVuSerif-38" transform="translate(83.789062 0)"/>
      </g>
     </g>
    </g>
    <g id="ytick_3">
     <g id="line2d_21">
      <path d="M 42.225625 206.054263 
L 360.439911 206.054263 
" clip-path="url(#pfef8e413b3)" style="fill: none; stroke: #b0b0b0; stroke-opacity: 0.18; stroke-width: 0.6; stroke-linecap: square"/>
     </g>
     <g id="line2d_22">
      <g>
       <use xlink:href="#mac62f1ec88" x="42.225625" y="206.054263" style="stroke: #000000; stroke-width: 0.8"/>
      </g>
     </g>
     <g id="text_12">
      <!-- −6 -->
      <g transform="translate(20.483438 209.853482) scale(0.1 -0.1)">
       <use xlink:href="#DejaVuSerif-2212"/>
       <use xlink:href="#DejaVuSerif-36" transform="translate(83.789062 0)"/>
      </g>
     </g>
    </g>
    <g id="ytick_4">
     <g id="line2d_23">
      <path d="M 42.225625 172.649875 
L 360.439911 172.649875 
" clip-path="url(#pfef8e413b3)" style="fill: none; stroke: #b0b0b0; stroke-opacity: 0.18; stroke-width: 0.6; stroke-linecap: square"/>
     </g>
     <g id="line2d_24">
      <g>
       <use xlink:href="#mac62f1ec88" x="42.225625" y="172.649875" style="stroke: #000000; stroke-width: 0.8"/>
      </g>
     </g>
     <g id="text_13">
      <!-- −4 -->
      <g transform="translate(20.483438 176.449093) scale(0.1 -0.1)">
       <use xlink:href="#DejaVuSerif-2212"/>
       <use xlink:href="#DejaVuSerif-34" transform="translate(83.789062 0)"/>
      </g>
     </g>
    </g>
    <g id="ytick_5">
     <g id="line2d_25">
      <path d="M 42.225625 139.245486 
L 360.439911 139.245486 
" clip-path="url(#pfef8e413b3)" style="fill: none; stroke: #b0b0b0; stroke-opacity: 0.18; stroke-width: 0.6; stroke-linecap: square"/>
     </g>
     <g id="line2d_26">
      <g>
       <use xlink:href="#mac62f1ec88" x="42.225625" y="139.245486" style="stroke: #000000; stroke-width: 0.8"/>
      </g>
     </g>
     <g id="text_14">
      <!-- −2 -->
      <g transform="translate(20.483438 143.044705) scale(0.1 -0.1)">
       <use xlink:href="#DejaVuSerif-2212"/>
       <use xlink:href="#DejaVuSerif-32" transform="translate(83.789062 0)"/>
      </g>
     </g>
    </g>
    <g id="ytick_6">
     <g id="line2d_27">
      <path d="M 42.225625 105.841097 
L 360.439911 105.841097 
" clip-path="url(#pfef8e413b3)" style="fill: none; stroke: #b0b0b0; stroke-opacity: 0.18; stroke-width: 0.6; stroke-linecap: square"/>
     </g>
     <g id="line2d_28">
      <g>
       <use xlink:href="#mac62f1ec88" x="42.225625" y="105.841097" style="stroke: #000000; stroke-width: 0.8"/>
      </g>
     </g>
     <g id="text_15">
      <!-- 0 -->
      <g transform="translate(28.863125 109.640316) scale(0.1 -0.1)">
       <use xlink:href="#DejaVuSerif-30"/>
      </g>
     </g>
    </g>
   </g>
   <g id="line2d_29">
    <path d="M 56.689911 189.352069 
L 201.767131 189.336002 
L 208.427362 184.62886 
L 216.245895 179.382562 
L 226.38103 172.869168 
L 246.361725 160.095493 
L 253.311532 155.356134 
L 259.392613 150.938758 
L 264.604969 146.8848 
L 269.527749 142.780892 
L 274.160953 138.642092 
L 278.794158 134.217269 
L 283.716938 129.201204 
L 288.929293 123.560957 
L 294.720799 116.961576 
L 302.249756 108.022131 
L 303.987208 105.924345 
L 304.566359 105.841097 
L 345.975625 105.841097 
L 345.975625 105.841097 
" clip-path="url(#pfef8e413b3)" style="fill: none; stroke: #1f1f1f; stroke-width: 2; stroke-linecap: square"/>
   </g>
   <g id="line2d_30">
    <path d="M 201.745046 281.214138 
L 201.745046 97.49 
" clip-path="url(#pfef8e413b3)" style="fill: none; stroke-dasharray: 1,1.65; stroke-dashoffset: 0; stroke: #1f1f1f; stroke-opacity: 0.28"/>
   </g>
   <g id="line2d_31">
    <path d="M 304.05584 281.214138 
L 304.05584 97.49 
" clip-path="url(#pfef8e413b3)" style="fill: none; stroke-dasharray: 1,1.65; stroke-dashoffset: 0; stroke: #1f1f1f; stroke-opacity: 0.28"/>
   </g>
   <g id="line2d_32">
    <path d="M 345.975625 281.214138 
L 345.975625 97.49 
" clip-path="url(#pfef8e413b3)" style="fill: none; stroke-dasharray: 1,1.65; stroke-dashoffset: 0; stroke: #1f1f1f; stroke-opacity: 0.28"/>
   </g>
   <g id="line2d_33">
    <path d="M 56.689911 272.863041 
L 134.232101 272.863041 
L 134.67903 272.067914 
L 137.807533 265.656963 
L 141.159501 259.315063 
L 144.511469 253.457278 
L 147.863437 248.030213 
L 151.438869 242.664586 
L 155.014302 237.689186 
L 158.813199 232.784553 
L 162.612096 228.231728 
L 166.634457 223.754022 
L 170.880283 219.369784 
L 175.126109 215.299888 
L 179.5954 211.319568 
L 184.288155 207.440325 
L 189.204374 203.671045 
L 194.344058 200.018304 
L 199.707207 196.486658 
L 205.29382 193.078931 
L 211.103898 189.796465 
L 217.13744 186.639369 
L 223.617911 183.502622 
L 230.321847 180.504108 
L 237.472712 177.550812 
L 245.070506 174.658605 
L 253.115229 171.840141 
L 261.60688 169.105175 
L 270.545462 166.460908 
L 279.930972 163.912328 
L 279.930972 163.912328 
" clip-path="url(#pfef8e413b3)" style="fill: none; stroke-dasharray: 7.4,3.2; stroke-dashoffset: 0; stroke: #8a4f3d; stroke-width: 2"/>
   </g>
   <g id="line2d_34">
    <path d="M 279.930972 281.214138 
L 279.930972 97.49 
" clip-path="url(#pfef8e413b3)" style="fill: none; stroke-dasharray: 6.4,1.6,1,1.6; stroke-dashoffset: 0; stroke: #8a4f3d; stroke-opacity: 0.28"/>
   </g>
   <g id="patch_3">
    <path d="M 42.225625 281.214138 
L 42.225625 97.49 
" style="fill: none; stroke: #000000; stroke-width: 0.8; stroke-linejoin: miter; stroke-linecap: square"/>
   </g>
   <g id="patch_4">
    <path d="M 42.225625 281.214138 
L 360.439911 281.214138 
" style="fill: none; stroke: #000000; stroke-width: 0.8; stroke-linejoin: miter; stroke-linecap: square"/>
   </g>
   <g id="text_16">
    <!-- A. Hedge ratio psi(w) -->
    <g transform="translate(141.729955 87.49) scale(0.11 -0.11)">
     <defs>
      <path id="DejaVuSerif-41" d="M 1281 1691 
L 2994 1691 
L 2138 3909 
L 1281 1691 
z
M -38 0 
L -38 331 
L 372 331 
L 2034 4666 
L 2559 4666 
L 4225 331 
L 4684 331 
L 4684 0 
L 2988 0 
L 2988 331 
L 3506 331 
L 3116 1356 
L 1153 1356 
L 763 331 
L 1275 331 
L 1275 0 
L -38 0 
z
" transform="scale(0.015625)"/>
      <path id="DejaVuSerif-20" transform="scale(0.015625)"/>
      <path id="DejaVuSerif-48" d="M 353 0 
L 353 331 
L 947 331 
L 947 4331 
L 353 4331 
L 353 4666 
L 2175 4666 
L 2175 4331 
L 1581 4331 
L 1581 2719 
L 4000 2719 
L 4000 4331 
L 3406 4331 
L 3406 4666 
L 5228 4666 
L 5228 4331 
L 4634 4331 
L 4634 331 
L 5228 331 
L 5228 0 
L 3406 0 
L 3406 331 
L 4000 331 
L 4000 2338 
L 1581 2338 
L 1581 331 
L 2175 331 
L 2175 0 
L 353 0 
z
" transform="scale(0.015625)"/>
      <path id="DejaVuSerif-65" d="M 3469 1600 
L 991 1600 
L 991 1575 
Q 991 903 1244 561 
Q 1497 219 1991 219 
Q 2369 219 2611 417 
Q 2853 616 2950 1006 
L 3413 1006 
Q 3275 459 2904 184 
Q 2534 -91 1931 -91 
Q 1203 -91 761 389 
Q 319 869 319 1663 
Q 319 2450 753 2931 
Q 1188 3413 1894 3413 
Q 2647 3413 3050 2948 
Q 3453 2484 3469 1600 
z
M 2791 1931 
Q 2772 2513 2545 2808 
Q 2319 3103 1894 3103 
Q 1497 3103 1269 2806 
Q 1041 2509 991 1931 
L 2791 1931 
z
" transform="scale(0.015625)"/>
      <path id="DejaVuSerif-64" d="M 3359 331 
L 3909 331 
L 3909 0 
L 2784 0 
L 2784 519 
Q 2616 206 2355 57 
Q 2094 -91 1709 -91 
Q 1097 -91 708 395 
Q 319 881 319 1663 
Q 319 2444 706 2928 
Q 1094 3413 1709 3413 
Q 2094 3413 2355 3264 
Q 2616 3116 2784 2803 
L 2784 4531 
L 2241 4531 
L 2241 4863 
L 3359 4863 
L 3359 331 
z
M 2784 1497 
L 2784 1825 
Q 2784 2422 2554 2737 
Q 2325 3053 1888 3053 
Q 1444 3053 1217 2703 
Q 991 2353 991 1663 
Q 991 975 1217 622 
Q 1444 269 1888 269 
Q 2325 269 2554 583 
Q 2784 897 2784 1497 
z
" transform="scale(0.015625)"/>
      <path id="DejaVuSerif-67" d="M 3359 2988 
L 3359 72 
Q 3359 -644 2965 -1033 
Q 2572 -1422 1844 -1422 
Q 1516 -1422 1216 -1362 
Q 916 -1303 641 -1184 
L 641 -488 
L 941 -488 
Q 997 -813 1206 -963 
Q 1416 -1113 1806 -1113 
Q 2313 -1113 2548 -827 
Q 2784 -541 2784 72 
L 2784 519 
Q 2616 206 2355 57 
Q 2094 -91 1709 -91 
Q 1097 -91 708 395 
Q 319 881 319 1663 
Q 319 2444 706 2928 
Q 1094 3413 1709 3413 
Q 2094 3413 2355 3264 
Q 2616 3116 2784 2803 
L 2784 3322 
L 3909 3322 
L 3909 2988 
L 3359 2988 
z
M 2784 1825 
Q 2784 2422 2554 2737 
Q 2325 3053 1888 3053 
Q 1444 3053 1217 2703 
Q 991 2353 991 1663 
Q 991 975 1217 622 
Q 1444 269 1888 269 
Q 2325 269 2554 583 
Q 2784 897 2784 1497 
L 2784 1825 
z
" transform="scale(0.015625)"/>
      <path id="DejaVuSerif-72" d="M 3059 3328 
L 3059 2497 
L 2728 2497 
Q 2713 2744 2591 2866 
Q 2469 2988 2234 2988 
Q 1809 2988 1582 2694 
Q 1356 2400 1356 1850 
L 1356 331 
L 2022 331 
L 2022 0 
L 263 0 
L 263 331 
L 781 331 
L 781 2994 
L 231 2994 
L 231 3322 
L 1356 3322 
L 1356 2731 
Q 1525 3078 1790 3245 
Q 2056 3413 2438 3413 
Q 2578 3413 2733 3391 
Q 2888 3369 3059 3328 
z
" transform="scale(0.015625)"/>
      <path id="DejaVuSerif-61" d="M 2547 1044 
L 2547 1747 
L 1806 1747 
Q 1378 1747 1168 1562 
Q 959 1378 959 997 
Q 959 650 1171 447 
Q 1384 244 1747 244 
Q 2106 244 2326 466 
Q 2547 688 2547 1044 
z
M 3122 2075 
L 3122 331 
L 3634 331 
L 3634 0 
L 2547 0 
L 2547 359 
Q 2356 128 2106 18 
Q 1856 -91 1522 -91 
Q 969 -91 644 203 
Q 319 497 319 997 
Q 319 1513 691 1797 
Q 1063 2081 1741 2081 
L 2547 2081 
L 2547 2309 
Q 2547 2688 2317 2895 
Q 2088 3103 1672 3103 
Q 1328 3103 1125 2947 
Q 922 2791 872 2484 
L 575 2484 
L 575 3156 
Q 875 3284 1158 3348 
Q 1441 3413 1709 3413 
Q 2400 3413 2761 3070 
Q 3122 2728 3122 2075 
z
" transform="scale(0.015625)"/>
      <path id="DejaVuSerif-74" d="M 691 2988 
L 184 2988 
L 184 3322 
L 691 3322 
L 691 4353 
L 1269 4353 
L 1269 3322 
L 2350 3322 
L 2350 2988 
L 1269 2988 
L 1269 878 
Q 1269 456 1350 337 
Q 1431 219 1650 219 
Q 1875 219 1978 351 
Q 2081 484 2088 781 
L 2522 781 
Q 2497 328 2275 118 
Q 2053 -91 1600 -91 
Q 1103 -91 897 129 
Q 691 350 691 878 
L 691 2988 
z
" transform="scale(0.015625)"/>
      <path id="DejaVuSerif-69" d="M 622 4353 
Q 622 4497 726 4603 
Q 831 4709 978 4709 
Q 1122 4709 1226 4603 
Q 1331 4497 1331 4353 
Q 1331 4206 1228 4103 
Q 1125 4000 978 4000 
Q 831 4000 726 4103 
Q 622 4206 622 4353 
z
M 1356 331 
L 1900 331 
L 1900 0 
L 231 0 
L 231 331 
L 781 331 
L 781 2988 
L 231 2988 
L 231 3322 
L 1356 3322 
L 1356 331 
z
" transform="scale(0.015625)"/>
      <path id="DejaVuSerif-6f" d="M 1925 219 
Q 2388 219 2623 584 
Q 2859 950 2859 1663 
Q 2859 2375 2623 2739 
Q 2388 3103 1925 3103 
Q 1463 3103 1227 2739 
Q 991 2375 991 1663 
Q 991 950 1228 584 
Q 1466 219 1925 219 
z
M 1925 -91 
Q 1200 -91 759 389 
Q 319 869 319 1663 
Q 319 2456 758 2934 
Q 1197 3413 1925 3413 
Q 2653 3413 3092 2934 
Q 3531 2456 3531 1663 
Q 3531 869 3092 389 
Q 2653 -91 1925 -91 
z
" transform="scale(0.015625)"/>
      <path id="DejaVuSerif-70" d="M 1313 1825 
L 1313 1497 
Q 1313 897 1542 583 
Q 1772 269 2209 269 
Q 2650 269 2876 622 
Q 3103 975 3103 1663 
Q 3103 2353 2876 2703 
Q 2650 3053 2209 3053 
Q 1772 3053 1542 2737 
Q 1313 2422 1313 1825 
z
M 738 2988 
L 184 2988 
L 184 3322 
L 1313 3322 
L 1313 2803 
Q 1481 3116 1742 3264 
Q 2003 3413 2388 3413 
Q 3000 3413 3387 2928 
Q 3775 2444 3775 1663 
Q 3775 881 3387 395 
Q 3000 -91 2388 -91 
Q 2003 -91 1742 57 
Q 1481 206 1313 519 
L 1313 -997 
L 1856 -997 
L 1856 -1331 
L 184 -1331 
L 184 -997 
L 738 -997 
L 738 2988 
z
" transform="scale(0.015625)"/>
      <path id="DejaVuSerif-73" d="M 359 184 
L 359 959 
L 691 959 
Q 703 588 923 403 
Q 1144 219 1575 219 
Q 1963 219 2166 364 
Q 2369 509 2369 788 
Q 2369 1006 2220 1140 
Q 2072 1275 1594 1428 
L 1178 1569 
Q 750 1706 558 1912 
Q 366 2119 366 2438 
Q 366 2894 700 3153 
Q 1034 3413 1625 3413 
Q 1888 3413 2178 3344 
Q 2469 3275 2778 3144 
L 2778 2419 
L 2447 2419 
Q 2434 2741 2221 2922 
Q 2009 3103 1644 3103 
Q 1281 3103 1095 2975 
Q 909 2847 909 2591 
Q 909 2381 1050 2254 
Q 1191 2128 1613 1997 
L 2069 1856 
Q 2541 1709 2748 1489 
Q 2956 1269 2956 922 
Q 2956 450 2595 179 
Q 2234 -91 1600 -91 
Q 1278 -91 972 -22 
Q 666 47 359 184 
z
" transform="scale(0.015625)"/>
      <path id="DejaVuSerif-28" d="M 2041 -997 
Q 1281 -656 893 83 
Q 506 822 506 1931 
Q 506 3044 893 3783 
Q 1281 4522 2041 4863 
L 2041 4556 
Q 1559 4225 1350 3623 
Q 1141 3022 1141 1931 
Q 1141 844 1350 242 
Q 1559 -359 2041 -691 
L 2041 -997 
z
" transform="scale(0.015625)"/>
      <path id="DejaVuSerif-29" d="M 453 -997 
L 453 -691 
Q 934 -359 1145 242 
Q 1356 844 1356 1931 
Q 1356 3022 1145 3623 
Q 934 4225 453 4556 
L 453 4863 
Q 1216 4522 1603 3783 
Q 1991 3044 1991 1931 
Q 1991 822 1603 83 
Q 1216 -656 453 -997 
z
" transform="scale(0.015625)"/>
     </defs>
     <use xlink:href="#DejaVuSerif-41"/>
     <use xlink:href="#DejaVuSerif-2e" transform="translate(72.216797 0)"/>
     <use xlink:href="#DejaVuSerif-20" transform="translate(104.003906 0)"/>
     <use xlink:href="#DejaVuSerif-48" transform="translate(135.791016 0)"/>
     <use xlink:href="#DejaVuSerif-65" transform="translate(222.998047 0)"/>
     <use xlink:href="#DejaVuSerif-64" transform="translate(282.177734 0)"/>
     <use xlink:href="#DejaVuSerif-67" transform="translate(346.191406 0)"/>
     <use xlink:href="#DejaVuSerif-65" transform="translate(410.205078 0)"/>
     <use xlink:href="#DejaVuSerif-20" transform="translate(469.384766 0)"/>
     <use xlink:href="#DejaVuSerif-72" transform="translate(501.171875 0)"/>
     <use xlink:href="#DejaVuSerif-61" transform="translate(548.974609 0)"/>
     <use xlink:href="#DejaVuSerif-74" transform="translate(608.59375 0)"/>
     <use xlink:href="#DejaVuSerif-69" transform="translate(648.779297 0)"/>
     <use xlink:href="#DejaVuSerif-6f" transform="translate(680.761719 0)"/>
     <use xlink:href="#DejaVuSerif-20" transform="translate(740.966797 0)"/>
     <use xlink:href="#DejaVuSerif-70" transform="translate(772.753906 0)"/>
     <use xlink:href="#DejaVuSerif-73" transform="translate(836.767578 0)"/>
     <use xlink:href="#DejaVuSerif-69" transform="translate(888.085938 0)"/>
     <use xlink:href="#DejaVuSerif-28" transform="translate(920.068359 0)"/>
     <use xlink:href="#DejaVuSerif-77" transform="translate(959.082031 0)"/>
     <use xlink:href="#DejaVuSerif-29" transform="translate(1044.677734 0)"/>
    </g>
   </g>
  </g>
  <g id="axes_2">
   <g id="patch_5">
    <path d="M 436.811339 281.214138 
L 755.025625 281.214138 
L 755.025625 97.49 
L 436.811339 97.49 
z
" style="fill: #ffffff"/>
   </g>
   <g id="matplotlib.axis_3">
    <g id="xtick_9">
     <g id="line2d_35">
      <path d="M 451.275625 281.214138 
L 451.275625 97.49 
" clip-path="url(#p5d71e0e915)" style="fill: none; stroke: #b0b0b0; stroke-opacity: 0.18; stroke-width: 0.6; stroke-linecap: square"/>
     </g>
     <g id="line2d_36">
      <g>
       <use xlink:href="#m1eee46c68a" x="451.275625" y="281.214138" style="stroke: #000000; stroke-width: 0.8"/>
      </g>
     </g>
     <g id="text_17">
      <!-- 0.00 -->
      <g transform="translate(440.142812 295.812575) scale(0.1 -0.1)">
       <use xlink:href="#DejaVuSerif-30"/>
       <use xlink:href="#DejaVuSerif-2e" transform="translate(63.623047 0)"/>
       <use xlink:href="#DejaVuSerif-30" transform="translate(95.410156 0)"/>
       <use xlink:href="#DejaVuSerif-30" transform="translate(159.033203 0)"/>
      </g>
     </g>
    </g>
    <g id="xtick_10">
     <g id="line2d_37">
      <path d="M 494.396649 281.214138 
L 494.396649 97.49 
" clip-path="url(#p5d71e0e915)" style="fill: none; stroke: #b0b0b0; stroke-opacity: 0.18; stroke-width: 0.6; stroke-linecap: square"/>
     </g>
     <g id="line2d_38">
      <g>
       <use xlink:href="#m1eee46c68a" x="494.396649" y="281.214138" style="stroke: #000000; stroke-width: 0.8"/>
      </g>
     </g>
     <g id="text_18">
      <!-- 0.02 -->
      <g transform="translate(483.263837 295.812575) scale(0.1 -0.1)">
       <use xlink:href="#DejaVuSerif-30"/>
       <use xlink:href="#DejaVuSerif-2e" transform="translate(63.623047 0)"/>
       <use xlink:href="#DejaVuSerif-30" transform="translate(95.410156 0)"/>
       <use xlink:href="#DejaVuSerif-32" transform="translate(159.033203 0)"/>
      </g>
     </g>
    </g>
    <g id="xtick_11">
     <g id="line2d_39">
      <path d="M 537.517673 281.214138 
L 537.517673 97.49 
" clip-path="url(#p5d71e0e915)" style="fill: none; stroke: #b0b0b0; stroke-opacity: 0.18; stroke-width: 0.6; stroke-linecap: square"/>
     </g>
     <g id="line2d_40">
      <g>
       <use xlink:href="#m1eee46c68a" x="537.517673" y="281.214138" style="stroke: #000000; stroke-width: 0.8"/>
      </g>
     </g>
     <g id="text_19">
      <!-- 0.04 -->
      <g transform="translate(526.384861 295.812575) scale(0.1 -0.1)">
       <use xlink:href="#DejaVuSerif-30"/>
       <use xlink:href="#DejaVuSerif-2e" transform="translate(63.623047 0)"/>
       <use xlink:href="#DejaVuSerif-30" transform="translate(95.410156 0)"/>
       <use xlink:href="#DejaVuSerif-34" transform="translate(159.033203 0)"/>
      </g>
     </g>
    </g>
    <g id="xtick_12">
     <g id="line2d_41">
      <path d="M 580.638698 281.214138 
L 580.638698 97.49 
" clip-path="url(#p5d71e0e915)" style="fill: none; stroke: #b0b0b0; stroke-opacity: 0.18; stroke-width: 0.6; stroke-linecap: square"/>
     </g>
     <g id="line2d_42">
      <g>
       <use xlink:href="#m1eee46c68a" x="580.638698" y="281.214138" style="stroke: #000000; stroke-width: 0.8"/>
      </g>
     </g>
     <g id="text_20">
      <!-- 0.06 -->
      <g transform="translate(569.505885 295.812575) scale(0.1 -0.1)">
       <use xlink:href="#DejaVuSerif-30"/>
       <use xlink:href="#DejaVuSerif-2e" transform="translate(63.623047 0)"/>
       <use xlink:href="#DejaVuSerif-30" transform="translate(95.410156 0)"/>
       <use xlink:href="#DejaVuSerif-36" transform="translate(159.033203 0)"/>
      </g>
     </g>
    </g>
    <g id="xtick_13">
     <g id="line2d_43">
      <path d="M 623.759722 281.214138 
L 623.759722 97.49 
" clip-path="url(#p5d71e0e915)" style="fill: none; stroke: #b0b0b0; stroke-opacity: 0.18; stroke-width: 0.6; stroke-linecap: square"/>
     </g>
     <g id="line2d_44">
      <g>
       <use xlink:href="#m1eee46c68a" x="623.759722" y="281.214138" style="stroke: #000000; stroke-width: 0.8"/>
      </g>
     </g>
     <g id="text_21">
      <!-- 0.08 -->
      <g transform="translate(612.626909 295.812575) scale(0.1 -0.1)">
       <use xlink:href="#DejaVuSerif-30"/>
       <use xlink:href="#DejaVuSerif-2e" transform="translate(63.623047 0)"/>
       <use xlink:href="#DejaVuSerif-30" transform="translate(95.410156 0)"/>
       <use xlink:href="#DejaVuSerif-38" transform="translate(159.033203 0)"/>
      </g>
     </g>
    </g>
    <g id="xtick_14">
     <g id="line2d_45">
      <path d="M 666.880746 281.214138 
L 666.880746 97.49 
" clip-path="url(#p5d71e0e915)" style="fill: none; stroke: #b0b0b0; stroke-opacity: 0.18; stroke-width: 0.6; stroke-linecap: square"/>
     </g>
     <g id="line2d_46">
      <g>
       <use xlink:href="#m1eee46c68a" x="666.880746" y="281.214138" style="stroke: #000000; stroke-width: 0.8"/>
      </g>
     </g>
     <g id="text_22">
      <!-- 0.10 -->
      <g transform="translate(655.747933 295.812575) scale(0.1 -0.1)">
       <use xlink:href="#DejaVuSerif-30"/>
       <use xlink:href="#DejaVuSerif-2e" transform="translate(63.623047 0)"/>
       <use xlink:href="#DejaVuSerif-31" transform="translate(95.410156 0)"/>
       <use xlink:href="#DejaVuSerif-30" transform="translate(159.033203 0)"/>
      </g>
     </g>
    </g>
    <g id="xtick_15">
     <g id="line2d_47">
      <path d="M 710.00177 281.214138 
L 710.00177 97.49 
" clip-path="url(#p5d71e0e915)" style="fill: none; stroke: #b0b0b0; stroke-opacity: 0.18; stroke-width: 0.6; stroke-linecap: square"/>
     </g>
     <g id="line2d_48">
      <g>
       <use xlink:href="#m1eee46c68a" x="710.00177" y="281.214138" style="stroke: #000000; stroke-width: 0.8"/>
      </g>
     </g>
     <g id="text_23">
      <!-- 0.12 -->
      <g transform="translate(698.868958 295.812575) scale(0.1 -0.1)">
       <use xlink:href="#DejaVuSerif-30"/>
       <use xlink:href="#DejaVuSerif-2e" transform="translate(63.623047 0)"/>
       <use xlink:href="#DejaVuSerif-31" transform="translate(95.410156 0)"/>
       <use xlink:href="#DejaVuSerif-32" transform="translate(159.033203 0)"/>
      </g>
     </g>
    </g>
    <g id="xtick_16">
     <g id="line2d_49">
      <path d="M 753.122794 281.214138 
L 753.122794 97.49 
" clip-path="url(#p5d71e0e915)" style="fill: none; stroke: #b0b0b0; stroke-opacity: 0.18; stroke-width: 0.6; stroke-linecap: square"/>
     </g>
     <g id="line2d_50">
      <g>
       <use xlink:href="#m1eee46c68a" x="753.122794" y="281.214138" style="stroke: #000000; stroke-width: 0.8"/>
      </g>
     </g>
     <g id="text_24">
      <!-- 0.14 -->
      <g transform="translate(741.989982 295.812575) scale(0.1 -0.1)">
       <use xlink:href="#DejaVuSerif-30"/>
       <use xlink:href="#DejaVuSerif-2e" transform="translate(63.623047 0)"/>
       <use xlink:href="#DejaVuSerif-31" transform="translate(95.410156 0)"/>
       <use xlink:href="#DejaVuSerif-34" transform="translate(159.033203 0)"/>
      </g>
     </g>
    </g>
    <g id="text_25">
     <!-- w -->
     <g transform="translate(591.210826 310.250544) scale(0.11 -0.11)">
      <use xlink:href="#DejaVuSerif-77"/>
     </g>
    </g>
   </g>
   <g id="matplotlib.axis_4">
    <g id="ytick_7">
     <g id="line2d_51">
      <path d="M 436.811339 269.931622 
L 755.025625 269.931622 
" clip-path="url(#p5d71e0e915)" style="fill: none; stroke: #b0b0b0; stroke-opacity: 0.18; stroke-width: 0.6; stroke-linecap: square"/>
     </g>
     <g id="line2d_52">
      <g>
       <use xlink:href="#mac62f1ec88" x="436.811339" y="269.931622" style="stroke: #000000; stroke-width: 0.8"/>
      </g>
     </g>
     <g id="text_26">
      <!-- −0.4 -->
      <g transform="translate(405.528527 273.73084) scale(0.1 -0.1)">
       <use xlink:href="#DejaVuSerif-2212"/>
       <use xlink:href="#DejaVuSerif-30" transform="translate(83.789062 0)"/>
       <use xlink:href="#DejaVuSerif-2e" transform="translate(147.412109 0)"/>
       <use xlink:href="#DejaVuSerif-34" transform="translate(179.199219 0)"/>
      </g>
     </g>
    </g>
    <g id="ytick_8">
     <g id="line2d_53">
      <path d="M 436.811339 238.516941 
L 755.025625 238.516941 
" clip-path="url(#p5d71e0e915)" style="fill: none; stroke: #b0b0b0; stroke-opacity: 0.18; stroke-width: 0.6; stroke-linecap: square"/>
     </g>
     <g id="line2d_54">
      <g>
       <use xlink:href="#mac62f1ec88" x="436.811339" y="238.516941" style="stroke: #000000; stroke-width: 0.8"/>
      </g>
     </g>
     <g id="text_27">
      <!-- −0.3 -->
      <g transform="translate(405.528527 242.316159) scale(0.1 -0.1)">
       <defs>
        <path id="DejaVuSerif-33" d="M 622 4469 
Q 988 4606 1323 4678 
Q 1659 4750 1953 4750 
Q 2638 4750 3022 4454 
Q 3406 4159 3406 3634 
Q 3406 3213 3140 2930 
Q 2875 2647 2388 2547 
Q 2963 2466 3280 2130 
Q 3597 1794 3597 1259 
Q 3597 606 3158 257 
Q 2719 -91 1894 -91 
Q 1528 -91 1179 -12 
Q 831 66 488 225 
L 488 1131 
L 838 1131 
Q 869 681 1141 450 
Q 1413 219 1906 219 
Q 2384 219 2661 495 
Q 2938 772 2938 1253 
Q 2938 1803 2653 2086 
Q 2369 2369 1819 2369 
L 1522 2369 
L 1522 2688 
L 1678 2688 
Q 2225 2688 2498 2914 
Q 2772 3141 2772 3597 
Q 2772 4006 2547 4223 
Q 2322 4441 1900 4441 
Q 1478 4441 1245 4241 
Q 1013 4041 972 3647 
L 622 3647 
L 622 4469 
z
" transform="scale(0.015625)"/>
       </defs>
       <use xlink:href="#DejaVuSerif-2212"/>
       <use xlink:href="#DejaVuSerif-30" transform="translate(83.789062 0)"/>
       <use xlink:href="#DejaVuSerif-2e" transform="translate(147.412109 0)"/>
       <use xlink:href="#DejaVuSerif-33" transform="translate(179.199219 0)"/>
      </g>
     </g>
    </g>
    <g id="ytick_9">
     <g id="line2d_55">
      <path d="M 436.811339 207.10226 
L 755.025625 207.10226 
" clip-path="url(#p5d71e0e915)" style="fill: none; stroke: #b0b0b0; stroke-opacity: 0.18; stroke-width: 0.6; stroke-linecap: square"/>
     </g>
     <g id="line2d_56">
      <g>
       <use xlink:href="#mac62f1ec88" x="436.811339" y="207.10226" style="stroke: #000000; stroke-width: 0.8"/>
      </g>
     </g>
     <g id="text_28">
      <!-- −0.2 -->
      <g transform="translate(405.528527 210.901479) scale(0.1 -0.1)">
       <use xlink:href="#DejaVuSerif-2212"/>
       <use xlink:href="#DejaVuSerif-30" transform="translate(83.789062 0)"/>
       <use xlink:href="#DejaVuSerif-2e" transform="translate(147.412109 0)"/>
       <use xlink:href="#DejaVuSerif-32" transform="translate(179.199219 0)"/>
      </g>
     </g>
    </g>
    <g id="ytick_10">
     <g id="line2d_57">
      <path d="M 436.811339 175.687579 
L 755.025625 175.687579 
" clip-path="url(#p5d71e0e915)" style="fill: none; stroke: #b0b0b0; stroke-opacity: 0.18; stroke-width: 0.6; stroke-linecap: square"/>
     </g>
     <g id="line2d_58">
      <g>
       <use xlink:href="#mac62f1ec88" x="436.811339" y="175.687579" style="stroke: #000000; stroke-width: 0.8"/>
      </g>
     </g>
     <g id="text_29">
      <!-- −0.1 -->
      <g transform="translate(405.528527 179.486798) scale(0.1 -0.1)">
       <use xlink:href="#DejaVuSerif-2212"/>
       <use xlink:href="#DejaVuSerif-30" transform="translate(83.789062 0)"/>
       <use xlink:href="#DejaVuSerif-2e" transform="translate(147.412109 0)"/>
       <use xlink:href="#DejaVuSerif-31" transform="translate(179.199219 0)"/>
      </g>
     </g>
    </g>
    <g id="ytick_11">
     <g id="line2d_59">
      <path d="M 436.811339 144.272898 
L 755.025625 144.272898 
" clip-path="url(#p5d71e0e915)" style="fill: none; stroke: #b0b0b0; stroke-opacity: 0.18; stroke-width: 0.6; stroke-linecap: square"/>
     </g>
     <g id="line2d_60">
      <g>
       <use xlink:href="#mac62f1ec88" x="436.811339" y="144.272898" style="stroke: #000000; stroke-width: 0.8"/>
      </g>
     </g>
     <g id="text_30">
      <!-- 0.0 -->
      <g transform="translate(413.908214 148.072117) scale(0.1 -0.1)">
       <use xlink:href="#DejaVuSerif-30"/>
       <use xlink:href="#DejaVuSerif-2e" transform="translate(63.623047 0)"/>
       <use xlink:href="#DejaVuSerif-30" transform="translate(95.410156 0)"/>
      </g>
     </g>
    </g>
    <g id="ytick_12">
     <g id="line2d_61">
      <path d="M 436.811339 112.858217 
L 755.025625 112.858217 
" clip-path="url(#p5d71e0e915)" style="fill: none; stroke: #b0b0b0; stroke-opacity: 0.18; stroke-width: 0.6; stroke-linecap: square"/>
     </g>
     <g id="line2d_62">
      <g>
       <use xlink:href="#mac62f1ec88" x="436.811339" y="112.858217" style="stroke: #000000; stroke-width: 0.8"/>
      </g>
     </g>
     <g id="text_31">
      <!-- 0.1 -->
      <g transform="translate(413.908214 116.657436) scale(0.1 -0.1)">
       <use xlink:href="#DejaVuSerif-30"/>
       <use xlink:href="#DejaVuSerif-2e" transform="translate(63.623047 0)"/>
       <use xlink:href="#DejaVuSerif-31" transform="translate(95.410156 0)"/>
      </g>
     </g>
    </g>
   </g>
   <g id="line2d_63">
    <path d="M 451.275625 218.577285 
L 457.646281 207.2096 
L 462.569061 198.889872 
L 467.202266 191.48837 
L 471.545895 184.952881 
L 475.889525 178.818581 
L 480.233154 173.085908 
L 484.287208 168.091434 
L 488.341262 163.430092 
L 492.395316 159.088382 
L 496.44937 155.050801 
L 500.793 151.043376 
L 505.136629 147.344861 
L 509.480258 143.934215 
L 514.113463 140.590412 
L 518.746667 137.527068 
L 523.379872 134.721836 
L 528.302652 132.000866 
L 533.515007 129.38641 
L 538.727362 127.021856 
L 544.229293 124.772366 
L 550.020799 122.652454 
L 556.10188 120.673905 
L 562.472536 118.845918 
L 569.132768 117.175253 
L 576.082575 115.666314 
L 583.321957 114.321186 
L 591.14049 113.098217 
L 599.538173 112.017098 
L 608.804583 111.057683 
L 619.229293 110.209997 
L 631.10188 109.476998 
L 644.711918 108.86873 
L 660.638559 108.387828 
L 680.329679 108.025103 
L 708.418482 107.748442 
L 740.561339 107.619633 
L 740.561339 107.619633 
" clip-path="url(#p5d71e0e915)" style="fill: none; stroke: #1f1f1f; stroke-width: 2; stroke-linecap: square"/>
   </g>
   <g id="line2d_64">
    <path d="M 740.561339 281.214138 
L 740.561339 97.49 
" clip-path="url(#p5d71e0e915)" style="fill: none; stroke-dasharray: 1,1.65; stroke-dashoffset: 0; stroke: #1f1f1f; stroke-opacity: 0.28"/>
   </g>
   <g id="line2d_65">
    <path d="M 451.275625 272.863041 
L 458.203025 230.744518 
L 460.661135 217.610579 
L 462.89578 206.838481 
L 465.130426 197.188658 
L 467.141606 189.418202 
L 469.152787 182.447627 
L 471.163968 176.202802 
L 473.175148 170.607955 
L 475.409794 165.065529 
L 477.644439 160.144329 
L 479.879084 155.762864 
L 482.11373 151.849926 
L 484.571839 148.013655 
L 487.029949 144.600167 
L 489.488059 141.550586 
L 492.169633 138.580776 
L 494.851207 135.931361 
L 497.756246 133.370977 
L 500.88475 130.92161 
L 504.236718 128.598442 
L 507.81215 126.410853 
L 511.611047 124.363468 
L 515.633408 122.457177 
L 519.879234 120.690053 
L 524.571989 118.981997 
L 529.711673 117.357155 
L 535.298287 115.832311 
L 541.331829 114.418096 
L 548.035764 113.079079 
L 555.410094 111.83664 
L 563.678281 110.676285 
L 572.840327 109.62192 
L 583.119695 108.670723 
L 594.516386 107.844173 
L 607.253864 107.145024 
L 621.779058 106.57522 
L 638.315433 106.156031 
L 657.086453 105.907141 
L 674.516686 105.841097 
L 674.516686 105.841097 
" clip-path="url(#p5d71e0e915)" style="fill: none; stroke-dasharray: 7.4,3.2; stroke-dashoffset: 0; stroke: #8a4f3d; stroke-width: 2"/>
   </g>
   <g id="line2d_66">
    <path d="M 674.516686 281.214138 
L 674.516686 97.49 
" clip-path="url(#p5d71e0e915)" style="fill: none; stroke-dasharray: 6.4,1.6,1,1.6; stroke-dashoffset: 0; stroke: #8a4f3d; stroke-opacity: 0.28"/>
   </g>
   <g id="patch_6">
    <path d="M 436.811339 281.214138 
L 436.811339 97.49 
" style="fill: none; stroke: #000000; stroke-width: 0.8; stroke-linejoin: miter; stroke-linecap: square"/>
   </g>
   <g id="patch_7">
    <path d="M 436.811339 281.214138 
L 755.025625 281.214138 
" style="fill: none; stroke: #000000; stroke-width: 0.8; stroke-linejoin: miter; stroke-linecap: square"/>
   </g>
   <g id="text_32">
    <!-- B. Investment ratio i(w) -->
    <g transform="translate(529.603951 87.49) scale(0.11 -0.11)">
     <defs>
      <path id="DejaVuSerif-42" d="M 1581 331 
L 2516 331 
Q 3078 331 3337 575 
Q 3597 819 3597 1350 
Q 3597 1878 3339 2120 
Q 3081 2363 2516 2363 
L 1581 2363 
L 1581 331 
z
M 1581 2694 
L 2375 2694 
Q 2888 2694 3123 2891 
Q 3359 3088 3359 3513 
Q 3359 3941 3123 4136 
Q 2888 4331 2375 4331 
L 1581 4331 
L 1581 2694 
z
M 353 0 
L 353 331 
L 947 331 
L 947 4331 
L 353 4331 
L 353 4666 
L 2656 4666 
Q 3363 4666 3720 4377 
Q 4078 4088 4078 3513 
Q 4078 3097 3829 2850 
Q 3581 2603 3103 2547 
Q 3697 2472 4005 2167 
Q 4313 1863 4313 1350 
Q 4313 656 3875 328 
Q 3438 0 2509 0 
L 353 0 
z
" transform="scale(0.015625)"/>
      <path id="DejaVuSerif-49" d="M 1581 331 
L 2175 331 
L 2175 0 
L 353 0 
L 353 331 
L 947 331 
L 947 4331 
L 353 4331 
L 353 4666 
L 2175 4666 
L 2175 4331 
L 1581 4331 
L 1581 331 
z
" transform="scale(0.015625)"/>
      <path id="DejaVuSerif-6e" d="M 263 0 
L 263 331 
L 781 331 
L 781 2988 
L 231 2988 
L 231 3322 
L 1356 3322 
L 1356 2731 
Q 1516 3069 1770 3241 
Q 2025 3413 2363 3413 
Q 2913 3413 3172 3097 
Q 3431 2781 3431 2113 
L 3431 331 
L 3944 331 
L 3944 0 
L 2356 0 
L 2356 331 
L 2853 331 
L 2853 1931 
Q 2853 2541 2703 2767 
Q 2553 2994 2175 2994 
Q 1775 2994 1565 2701 
Q 1356 2409 1356 1850 
L 1356 331 
L 1856 331 
L 1856 0 
L 263 0 
z
" transform="scale(0.015625)"/>
      <path id="DejaVuSerif-76" d="M 1581 0 
L 359 2988 
L -19 2988 
L -19 3322 
L 1509 3322 
L 1509 2988 
L 978 2988 
L 1913 703 
L 2847 2988 
L 2350 2988 
L 2350 3322 
L 3597 3322 
L 3597 2988 
L 3225 2988 
L 2003 0 
L 1581 0 
z
" transform="scale(0.015625)"/>
      <path id="DejaVuSerif-6d" d="M 3316 2675 
Q 3481 3041 3739 3227 
Q 3997 3413 4341 3413 
Q 4863 3413 5119 3089 
Q 5375 2766 5375 2113 
L 5375 331 
L 5894 331 
L 5894 0 
L 4300 0 
L 4300 331 
L 4800 331 
L 4800 2047 
Q 4800 2556 4650 2772 
Q 4500 2988 4153 2988 
Q 3769 2988 3567 2697 
Q 3366 2406 3366 1850 
L 3366 331 
L 3866 331 
L 3866 0 
L 2291 0 
L 2291 331 
L 2791 331 
L 2791 2069 
Q 2791 2566 2641 2777 
Q 2491 2988 2144 2988 
Q 1759 2988 1557 2697 
Q 1356 2406 1356 1850 
L 1356 331 
L 1856 331 
L 1856 0 
L 263 0 
L 263 331 
L 781 331 
L 781 2994 
L 231 2994 
L 231 3322 
L 1356 3322 
L 1356 2731 
Q 1516 3063 1762 3238 
Q 2009 3413 2322 3413 
Q 2709 3413 2968 3220 
Q 3228 3028 3316 2675 
z
" transform="scale(0.015625)"/>
     </defs>
     <use xlink:href="#DejaVuSerif-42"/>
     <use xlink:href="#DejaVuSerif-2e" transform="translate(73.486328 0)"/>
     <use xlink:href="#DejaVuSerif-20" transform="translate(105.273438 0)"/>
     <use xlink:href="#DejaVuSerif-49" transform="translate(137.060547 0)"/>
     <use xlink:href="#DejaVuSerif-6e" transform="translate(176.5625 0)"/>
     <use xlink:href="#DejaVuSerif-76" transform="translate(240.966797 0)"/>
     <use xlink:href="#DejaVuSerif-65" transform="translate(297.460938 0)"/>
     <use xlink:href="#DejaVuSerif-73" transform="translate(356.640625 0)"/>
     <use xlink:href="#DejaVuSerif-74" transform="translate(407.958984 0)"/>
     <use xlink:href="#DejaVuSerif-6d" transform="translate(448.144531 0)"/>
     <use xlink:href="#DejaVuSerif-65" transform="translate(542.96875 0)"/>
     <use xlink:href="#DejaVuSerif-6e" transform="translate(602.148438 0)"/>
     <use xlink:href="#DejaVuSerif-74" transform="translate(666.552734 0)"/>
     <use xlink:href="#DejaVuSerif-20" transform="translate(706.738281 0)"/>
     <use xlink:href="#DejaVuSerif-72" transform="translate(738.525391 0)"/>
     <use xlink:href="#DejaVuSerif-61" transform="translate(786.328125 0)"/>
     <use xlink:href="#DejaVuSerif-74" transform="translate(845.947266 0)"/>
     <use xlink:href="#DejaVuSerif-69" transform="translate(886.132812 0)"/>
     <use xlink:href="#DejaVuSerif-6f" transform="translate(918.115234 0)"/>
     <use xlink:href="#DejaVuSerif-20" transform="translate(978.320312 0)"/>
     <use xlink:href="#DejaVuSerif-69" transform="translate(1010.107422 0)"/>
     <use xlink:href="#DejaVuSerif-28" transform="translate(1042.089844 0)"/>
     <use xlink:href="#DejaVuSerif-77" transform="translate(1081.103516 0)"/>
     <use xlink:href="#DejaVuSerif-29" transform="translate(1166.699219 0)"/>
    </g>
   </g>
  </g>
  <g id="axes_3">
   <g id="patch_8">
    <path d="M 42.225625 523.73 
L 360.439911 523.73 
L 360.439911 340.005862 
L 42.225625 340.005862 
z
" style="fill: #ffffff"/>
   </g>
   <g id="matplotlib.axis_5">
    <g id="xtick_17">
     <g id="line2d_67">
      <path d="M 56.689911 523.73 
L 56.689911 340.005862 
" clip-path="url(#p42218e18ca)" style="fill: none; stroke: #b0b0b0; stroke-opacity: 0.18; stroke-width: 0.6; stroke-linecap: square"/>
     </g>
     <g id="line2d_68">
      <g>
       <use xlink:href="#m1eee46c68a" x="56.689911" y="523.73" style="stroke: #000000; stroke-width: 0.8"/>
      </g>
     </g>
     <g id="text_33">
      <!-- 0.00 -->
      <g transform="translate(45.557098 538.328438) scale(0.1 -0.1)">
       <use xlink:href="#DejaVuSerif-30"/>
       <use xlink:href="#DejaVuSerif-2e" transform="translate(63.623047 0)"/>
       <use xlink:href="#DejaVuSerif-30" transform="translate(95.410156 0)"/>
       <use xlink:href="#DejaVuSerif-30" transform="translate(159.033203 0)"/>
      </g>
     </g>
    </g>
    <g id="xtick_18">
     <g id="line2d_69">
      <path d="M 99.810935 523.73 
L 99.810935 340.005862 
" clip-path="url(#p42218e18ca)" style="fill: none; stroke: #b0b0b0; stroke-opacity: 0.18; stroke-width: 0.6; stroke-linecap: square"/>
     </g>
     <g id="line2d_70">
      <g>
       <use xlink:href="#m1eee46c68a" x="99.810935" y="523.73" style="stroke: #000000; stroke-width: 0.8"/>
      </g>
     </g>
     <g id="text_34">
      <!-- 0.02 -->
      <g transform="translate(88.678122 538.328438) scale(0.1 -0.1)">
       <use xlink:href="#DejaVuSerif-30"/>
       <use xlink:href="#DejaVuSerif-2e" transform="translate(63.623047 0)"/>
       <use xlink:href="#DejaVuSerif-30" transform="translate(95.410156 0)"/>
       <use xlink:href="#DejaVuSerif-32" transform="translate(159.033203 0)"/>
      </g>
     </g>
    </g>
    <g id="xtick_19">
     <g id="line2d_71">
      <path d="M 142.931959 523.73 
L 142.931959 340.005862 
" clip-path="url(#p42218e18ca)" style="fill: none; stroke: #b0b0b0; stroke-opacity: 0.18; stroke-width: 0.6; stroke-linecap: square"/>
     </g>
     <g id="line2d_72">
      <g>
       <use xlink:href="#m1eee46c68a" x="142.931959" y="523.73" style="stroke: #000000; stroke-width: 0.8"/>
      </g>
     </g>
     <g id="text_35">
      <!-- 0.04 -->
      <g transform="translate(131.799147 538.328438) scale(0.1 -0.1)">
       <use xlink:href="#DejaVuSerif-30"/>
       <use xlink:href="#DejaVuSerif-2e" transform="translate(63.623047 0)"/>
       <use xlink:href="#DejaVuSerif-30" transform="translate(95.410156 0)"/>
       <use xlink:href="#DejaVuSerif-34" transform="translate(159.033203 0)"/>
      </g>
     </g>
    </g>
    <g id="xtick_20">
     <g id="line2d_73">
      <path d="M 186.052983 523.73 
L 186.052983 340.005862 
" clip-path="url(#p42218e18ca)" style="fill: none; stroke: #b0b0b0; stroke-opacity: 0.18; stroke-width: 0.6; stroke-linecap: square"/>
     </g>
     <g id="line2d_74">
      <g>
       <use xlink:href="#m1eee46c68a" x="186.052983" y="523.73" style="stroke: #000000; stroke-width: 0.8"/>
      </g>
     </g>
     <g id="text_36">
      <!-- 0.06 -->
      <g transform="translate(174.920171 538.328438) scale(0.1 -0.1)">
       <use xlink:href="#DejaVuSerif-30"/>
       <use xlink:href="#DejaVuSerif-2e" transform="translate(63.623047 0)"/>
       <use xlink:href="#DejaVuSerif-30" transform="translate(95.410156 0)"/>
       <use xlink:href="#DejaVuSerif-36" transform="translate(159.033203 0)"/>
      </g>
     </g>
    </g>
    <g id="xtick_21">
     <g id="line2d_75">
      <path d="M 229.174007 523.73 
L 229.174007 340.005862 
" clip-path="url(#p42218e18ca)" style="fill: none; stroke: #b0b0b0; stroke-opacity: 0.18; stroke-width: 0.6; stroke-linecap: square"/>
     </g>
     <g id="line2d_76">
      <g>
       <use xlink:href="#m1eee46c68a" x="229.174007" y="523.73" style="stroke: #000000; stroke-width: 0.8"/>
      </g>
     </g>
     <g id="text_37">
      <!-- 0.08 -->
      <g transform="translate(218.041195 538.328438) scale(0.1 -0.1)">
       <use xlink:href="#DejaVuSerif-30"/>
       <use xlink:href="#DejaVuSerif-2e" transform="translate(63.623047 0)"/>
       <use xlink:href="#DejaVuSerif-30" transform="translate(95.410156 0)"/>
       <use xlink:href="#DejaVuSerif-38" transform="translate(159.033203 0)"/>
      </g>
     </g>
    </g>
    <g id="xtick_22">
     <g id="line2d_77">
      <path d="M 272.295032 523.73 
L 272.295032 340.005862 
" clip-path="url(#p42218e18ca)" style="fill: none; stroke: #b0b0b0; stroke-opacity: 0.18; stroke-width: 0.6; stroke-linecap: square"/>
     </g>
     <g id="line2d_78">
      <g>
       <use xlink:href="#m1eee46c68a" x="272.295032" y="523.73" style="stroke: #000000; stroke-width: 0.8"/>
      </g>
     </g>
     <g id="text_38">
      <!-- 0.10 -->
      <g transform="translate(261.162219 538.328438) scale(0.1 -0.1)">
       <use xlink:href="#DejaVuSerif-30"/>
       <use xlink:href="#DejaVuSerif-2e" transform="translate(63.623047 0)"/>
       <use xlink:href="#DejaVuSerif-31" transform="translate(95.410156 0)"/>
       <use xlink:href="#DejaVuSerif-30" transform="translate(159.033203 0)"/>
      </g>
     </g>
    </g>
    <g id="xtick_23">
     <g id="line2d_79">
      <path d="M 315.416056 523.73 
L 315.416056 340.005862 
" clip-path="url(#p42218e18ca)" style="fill: none; stroke: #b0b0b0; stroke-opacity: 0.18; stroke-width: 0.6; stroke-linecap: square"/>
     </g>
     <g id="line2d_80">
      <g>
       <use xlink:href="#m1eee46c68a" x="315.416056" y="523.73" style="stroke: #000000; stroke-width: 0.8"/>
      </g>
     </g>
     <g id="text_39">
      <!-- 0.12 -->
      <g transform="translate(304.283243 538.328438) scale(0.1 -0.1)">
       <use xlink:href="#DejaVuSerif-30"/>
       <use xlink:href="#DejaVuSerif-2e" transform="translate(63.623047 0)"/>
       <use xlink:href="#DejaVuSerif-31" transform="translate(95.410156 0)"/>
       <use xlink:href="#DejaVuSerif-32" transform="translate(159.033203 0)"/>
      </g>
     </g>
    </g>
    <g id="xtick_24">
     <g id="line2d_81">
      <path d="M 358.53708 523.73 
L 358.53708 340.005862 
" clip-path="url(#p42218e18ca)" style="fill: none; stroke: #b0b0b0; stroke-opacity: 0.18; stroke-width: 0.6; stroke-linecap: square"/>
     </g>
     <g id="line2d_82">
      <g>
       <use xlink:href="#m1eee46c68a" x="358.53708" y="523.73" style="stroke: #000000; stroke-width: 0.8"/>
      </g>
     </g>
     <g id="text_40">
      <!-- 0.14 -->
      <g transform="translate(347.404268 538.328438) scale(0.1 -0.1)">
       <use xlink:href="#DejaVuSerif-30"/>
       <use xlink:href="#DejaVuSerif-2e" transform="translate(63.623047 0)"/>
       <use xlink:href="#DejaVuSerif-31" transform="translate(95.410156 0)"/>
       <use xlink:href="#DejaVuSerif-34" transform="translate(159.033203 0)"/>
      </g>
     </g>
    </g>
    <g id="text_41">
     <!-- w -->
     <g transform="translate(196.625112 552.766406) scale(0.11 -0.11)">
      <use xlink:href="#DejaVuSerif-77"/>
     </g>
    </g>
   </g>
   <g id="matplotlib.axis_6">
    <g id="ytick_13">
     <g id="line2d_83">
      <path d="M 42.225625 517.961134 
L 360.439911 517.961134 
" clip-path="url(#p42218e18ca)" style="fill: none; stroke: #b0b0b0; stroke-opacity: 0.18; stroke-width: 0.6; stroke-linecap: square"/>
     </g>
     <g id="line2d_84">
      <g>
       <use xlink:href="#mac62f1ec88" x="42.225625" y="517.961134" style="stroke: #000000; stroke-width: 0.8"/>
      </g>
     </g>
     <g id="text_42">
      <!-- 1.16 -->
      <g transform="translate(12.96 521.760353) scale(0.1 -0.1)">
       <use xlink:href="#DejaVuSerif-31"/>
       <use xlink:href="#DejaVuSerif-2e" transform="translate(63.623047 0)"/>
       <use xlink:href="#DejaVuSerif-31" transform="translate(95.410156 0)"/>
       <use xlink:href="#DejaVuSerif-36" transform="translate(159.033203 0)"/>
      </g>
     </g>
    </g>
    <g id="ytick_14">
     <g id="line2d_85">
      <path d="M 42.225625 495.374794 
L 360.439911 495.374794 
" clip-path="url(#p42218e18ca)" style="fill: none; stroke: #b0b0b0; stroke-opacity: 0.18; stroke-width: 0.6; stroke-linecap: square"/>
     </g>
     <g id="line2d_86">
      <g>
       <use xlink:href="#mac62f1ec88" x="42.225625" y="495.374794" style="stroke: #000000; stroke-width: 0.8"/>
      </g>
     </g>
     <g id="text_43">
      <!-- 1.18 -->
      <g transform="translate(12.96 499.174013) scale(0.1 -0.1)">
       <use xlink:href="#DejaVuSerif-31"/>
       <use xlink:href="#DejaVuSerif-2e" transform="translate(63.623047 0)"/>
       <use xlink:href="#DejaVuSerif-31" transform="translate(95.410156 0)"/>
       <use xlink:href="#DejaVuSerif-38" transform="translate(159.033203 0)"/>
      </g>
     </g>
    </g>
    <g id="ytick_15">
     <g id="line2d_87">
      <path d="M 42.225625 472.788454 
L 360.439911 472.788454 
" clip-path="url(#p42218e18ca)" style="fill: none; stroke: #b0b0b0; stroke-opacity: 0.18; stroke-width: 0.6; stroke-linecap: square"/>
     </g>
     <g id="line2d_88">
      <g>
       <use xlink:href="#mac62f1ec88" x="42.225625" y="472.788454" style="stroke: #000000; stroke-width: 0.8"/>
      </g>
     </g>
     <g id="text_44">
      <!-- 1.20 -->
      <g transform="translate(12.96 476.587672) scale(0.1 -0.1)">
       <use xlink:href="#DejaVuSerif-31"/>
       <use xlink:href="#DejaVuSerif-2e" transform="translate(63.623047 0)"/>
       <use xlink:href="#DejaVuSerif-32" transform="translate(95.410156 0)"/>
       <use xlink:href="#DejaVuSerif-30" transform="translate(159.033203 0)"/>
      </g>
     </g>
    </g>
    <g id="ytick_16">
     <g id="line2d_89">
      <path d="M 42.225625 450.202114 
L 360.439911 450.202114 
" clip-path="url(#p42218e18ca)" style="fill: none; stroke: #b0b0b0; stroke-opacity: 0.18; stroke-width: 0.6; stroke-linecap: square"/>
     </g>
     <g id="line2d_90">
      <g>
       <use xlink:href="#mac62f1ec88" x="42.225625" y="450.202114" style="stroke: #000000; stroke-width: 0.8"/>
      </g>
     </g>
     <g id="text_45">
      <!-- 1.22 -->
      <g transform="translate(12.96 454.001332) scale(0.1 -0.1)">
       <use xlink:href="#DejaVuSerif-31"/>
       <use xlink:href="#DejaVuSerif-2e" transform="translate(63.623047 0)"/>
       <use xlink:href="#DejaVuSerif-32" transform="translate(95.410156 0)"/>
       <use xlink:href="#DejaVuSerif-32" transform="translate(159.033203 0)"/>
      </g>
     </g>
    </g>
    <g id="ytick_17">
     <g id="line2d_91">
      <path d="M 42.225625 427.615773 
L 360.439911 427.615773 
" clip-path="url(#p42218e18ca)" style="fill: none; stroke: #b0b0b0; stroke-opacity: 0.18; stroke-width: 0.6; stroke-linecap: square"/>
     </g>
     <g id="line2d_92">
      <g>
       <use xlink:href="#mac62f1ec88" x="42.225625" y="427.615773" style="stroke: #000000; stroke-width: 0.8"/>
      </g>
     </g>
     <g id="text_46">
      <!-- 1.24 -->
      <g transform="translate(12.96 431.414992) scale(0.1 -0.1)">
       <use xlink:href="#DejaVuSerif-31"/>
       <use xlink:href="#DejaVuSerif-2e" transform="translate(63.623047 0)"/>
       <use xlink:href="#DejaVuSerif-32" transform="translate(95.410156 0)"/>
       <use xlink:href="#DejaVuSerif-34" transform="translate(159.033203 0)"/>
      </g>
     </g>
    </g>
    <g id="ytick_18">
     <g id="line2d_93">
      <path d="M 42.225625 405.029433 
L 360.439911 405.029433 
" clip-path="url(#p42218e18ca)" style="fill: none; stroke: #b0b0b0; stroke-opacity: 0.18; stroke-width: 0.6; stroke-linecap: square"/>
     </g>
     <g id="line2d_94">
      <g>
       <use xlink:href="#mac62f1ec88" x="42.225625" y="405.029433" style="stroke: #000000; stroke-width: 0.8"/>
      </g>
     </g>
     <g id="text_47">
      <!-- 1.26 -->
      <g transform="translate(12.96 408.828652) scale(0.1 -0.1)">
       <use xlink:href="#DejaVuSerif-31"/>
       <use xlink:href="#DejaVuSerif-2e" transform="translate(63.623047 0)"/>
       <use xlink:href="#DejaVuSerif-32" transform="translate(95.410156 0)"/>
       <use xlink:href="#DejaVuSerif-36" transform="translate(159.033203 0)"/>
      </g>
     </g>
    </g>
    <g id="ytick_19">
     <g id="line2d_95">
      <path d="M 42.225625 382.443093 
L 360.439911 382.443093 
" clip-path="url(#p42218e18ca)" style="fill: none; stroke: #b0b0b0; stroke-opacity: 0.18; stroke-width: 0.6; stroke-linecap: square"/>
     </g>
     <g id="line2d_96">
      <g>
       <use xlink:href="#mac62f1ec88" x="42.225625" y="382.443093" style="stroke: #000000; stroke-width: 0.8"/>
      </g>
     </g>
     <g id="text_48">
      <!-- 1.28 -->
      <g transform="translate(12.96 386.242312) scale(0.1 -0.1)">
       <use xlink:href="#DejaVuSerif-31"/>
       <use xlink:href="#DejaVuSerif-2e" transform="translate(63.623047 0)"/>
       <use xlink:href="#DejaVuSerif-32" transform="translate(95.410156 0)"/>
       <use xlink:href="#DejaVuSerif-38" transform="translate(159.033203 0)"/>
      </g>
     </g>
    </g>
    <g id="ytick_20">
     <g id="line2d_97">
      <path d="M 42.225625 359.856753 
L 360.439911 359.856753 
" clip-path="url(#p42218e18ca)" style="fill: none; stroke: #b0b0b0; stroke-opacity: 0.18; stroke-width: 0.6; stroke-linecap: square"/>
     </g>
     <g id="line2d_98">
      <g>
       <use xlink:href="#mac62f1ec88" x="42.225625" y="359.856753" style="stroke: #000000; stroke-width: 0.8"/>
      </g>
     </g>
     <g id="text_49">
      <!-- 1.30 -->
      <g transform="translate(12.96 363.655972) scale(0.1 -0.1)">
       <use xlink:href="#DejaVuSerif-31"/>
       <use xlink:href="#DejaVuSerif-2e" transform="translate(63.623047 0)"/>
       <use xlink:href="#DejaVuSerif-33" transform="translate(95.410156 0)"/>
       <use xlink:href="#DejaVuSerif-30" transform="translate(159.033203 0)"/>
      </g>
     </g>
    </g>
   </g>
   <g id="line2d_99">
    <path d="M 56.689911 515.378903 
L 61.612691 510.880332 
L 67.114621 506.160629 
L 72.906127 501.485055 
L 79.276783 496.626943 
L 86.22659 491.604435 
L 94.045123 486.231698 
L 102.732382 480.534761 
L 112.577942 474.348306 
L 123.871378 467.521972 
L 136.902266 459.912995 
L 152.249756 451.217867 
L 170.782575 440.985072 
L 193.948598 428.459764 
L 225.80188 411.507586 
L 277.635857 384.203915 
L 345.975625 348.356959 
L 345.975625 348.356959 
" clip-path="url(#p42218e18ca)" style="fill: none; stroke: #1f1f1f; stroke-width: 2; stroke-linecap: square"/>
   </g>
   <g id="line2d_100">
    <path d="M 156.882961 523.73 
L 156.882961 340.005862 
" clip-path="url(#p42218e18ca)" style="fill: none; stroke-dasharray: 1,1.65; stroke-dashoffset: 0; stroke: #1f1f1f; stroke-opacity: 0.28"/>
   </g>
   <g id="line2d_101">
    <path d="M 345.975625 523.73 
L 345.975625 340.005862 
" clip-path="url(#p42218e18ca)" style="fill: none; stroke-dasharray: 1,1.65; stroke-dashoffset: 0; stroke: #1f1f1f; stroke-opacity: 0.28"/>
   </g>
   <g id="line2d_102">
    <path d="M 56.689911 505.981829 
L 58.701091 503.012899 
L 60.935737 500.149699 
L 63.393846 497.388916 
L 66.075421 494.713497 
L 69.203924 491.90853 
L 73.002821 488.82188 
L 77.472112 485.495161 
L 82.83526 481.791435 
L 89.539196 477.448874 
L 97.807383 472.372181 
L 108.310216 466.199408 
L 121.718088 458.592158 
L 139.148321 448.973733 
L 162.165167 436.540888 
L 193.897129 419.668642 
L 243.282789 393.687776 
L 279.930972 374.48447 
L 279.930972 374.48447 
" clip-path="url(#p42218e18ca)" style="fill: none; stroke-dasharray: 7.4,3.2; stroke-dashoffset: 0; stroke: #8a4f3d; stroke-width: 2"/>
   </g>
   <g id="line2d_103">
    <path d="M 125.963914 523.73 
L 125.963914 340.005862 
" clip-path="url(#p42218e18ca)" style="fill: none; stroke-dasharray: 6.4,1.6,1,1.6; stroke-dashoffset: 0; stroke: #8a4f3d; stroke-opacity: 0.28"/>
   </g>
   <g id="line2d_104">
    <path d="M 279.930972 523.73 
L 279.930972 340.005862 
" clip-path="url(#p42218e18ca)" style="fill: none; stroke-dasharray: 6.4,1.6,1,1.6; stroke-dashoffset: 0; stroke: #8a4f3d; stroke-opacity: 0.28"/>
   </g>
   <g id="patch_9">
    <path d="M 42.225625 523.73 
L 42.225625 340.005862 
" style="fill: none; stroke: #000000; stroke-width: 0.8; stroke-linejoin: miter; stroke-linecap: square"/>
   </g>
   <g id="patch_10">
    <path d="M 42.225625 523.73 
L 360.439911 523.73 
" style="fill: none; stroke: #000000; stroke-width: 0.8; stroke-linejoin: miter; stroke-linecap: square"/>
   </g>
   <g id="text_50">
    <!-- C. Value ratio p(w) -->
    <g transform="translate(149.316518 330.005862) scale(0.11 -0.11)">
     <defs>
      <path id="DejaVuSerif-43" d="M 4513 1234 
Q 4306 581 3820 245 
Q 3334 -91 2591 -91 
Q 2134 -91 1743 65 
Q 1353 222 1050 525 
Q 700 875 529 1320 
Q 359 1766 359 2328 
Q 359 3416 987 4083 
Q 1616 4750 2644 4750 
Q 3025 4750 3456 4650 
Q 3888 4550 4384 4347 
L 4384 3272 
L 4031 3272 
Q 3916 3859 3567 4137 
Q 3219 4416 2591 4416 
Q 1844 4416 1459 3886 
Q 1075 3356 1075 2328 
Q 1075 1303 1459 773 
Q 1844 244 2591 244 
Q 3113 244 3450 492 
Q 3788 741 3938 1234 
L 4513 1234 
z
" transform="scale(0.015625)"/>
      <path id="DejaVuSerif-56" d="M 1119 4331 
L 2497 750 
L 3872 4331 
L 3347 4331 
L 3347 4666 
L 4716 4666 
L 4716 4331 
L 4263 4331 
L 2597 0 
L 2059 0 
L 403 4331 
L -63 4331 
L -63 4666 
L 1638 4666 
L 1638 4331 
L 1119 4331 
z
" transform="scale(0.015625)"/>
      <path id="DejaVuSerif-6c" d="M 1313 331 
L 1856 331 
L 1856 0 
L 184 0 
L 184 331 
L 738 331 
L 738 4531 
L 184 4531 
L 184 4863 
L 1313 4863 
L 1313 331 
z
" transform="scale(0.015625)"/>
      <path id="DejaVuSerif-75" d="M 2266 3322 
L 3341 3322 
L 3341 331 
L 3884 331 
L 3884 0 
L 2766 0 
L 2766 588 
Q 2606 256 2353 82 
Q 2100 -91 1766 -91 
Q 1213 -91 952 223 
Q 691 538 691 1209 
L 691 2988 
L 172 2988 
L 172 3322 
L 1269 3322 
L 1269 1388 
Q 1269 781 1417 556 
Q 1566 331 1947 331 
Q 2347 331 2556 625 
Q 2766 919 2766 1478 
L 2766 2988 
L 2266 2988 
L 2266 3322 
z
" transform="scale(0.015625)"/>
     </defs>
     <use xlink:href="#DejaVuSerif-43"/>
     <use xlink:href="#DejaVuSerif-2e" transform="translate(72.888672 0)"/>
     <use xlink:href="#DejaVuSerif-20" transform="translate(104.675781 0)"/>
     <use xlink:href="#DejaVuSerif-56" transform="translate(136.462891 0)"/>
     <use xlink:href="#DejaVuSerif-61" transform="translate(199.554688 0)"/>
     <use xlink:href="#DejaVuSerif-6c" transform="translate(259.173828 0)"/>
     <use xlink:href="#DejaVuSerif-75" transform="translate(291.15625 0)"/>
     <use xlink:href="#DejaVuSerif-65" transform="translate(355.560547 0)"/>
     <use xlink:href="#DejaVuSerif-20" transform="translate(414.740234 0)"/>
     <use xlink:href="#DejaVuSerif-72" transform="translate(446.527344 0)"/>
     <use xlink:href="#DejaVuSerif-61" transform="translate(494.330078 0)"/>
     <use xlink:href="#DejaVuSerif-74" transform="translate(553.949219 0)"/>
     <use xlink:href="#DejaVuSerif-69" transform="translate(594.134766 0)"/>
     <use xlink:href="#DejaVuSerif-6f" transform="translate(626.117188 0)"/>
     <use xlink:href="#DejaVuSerif-20" transform="translate(686.322266 0)"/>
     <use xlink:href="#DejaVuSerif-70" transform="translate(718.109375 0)"/>
     <use xlink:href="#DejaVuSerif-28" transform="translate(782.123047 0)"/>
     <use xlink:href="#DejaVuSerif-77" transform="translate(821.136719 0)"/>
     <use xlink:href="#DejaVuSerif-29" transform="translate(906.732422 0)"/>
    </g>
   </g>
  </g>
  <g id="axes_4">
   <g id="patch_11">
    <path d="M 436.811339 523.73 
L 755.025625 523.73 
L 755.025625 340.005862 
L 436.811339 340.005862 
z
" style="fill: #ffffff"/>
   </g>
   <g id="matplotlib.axis_7">
    <g id="xtick_25">
     <g id="line2d_105">
      <path d="M 451.275625 523.73 
L 451.275625 340.005862 
" clip-path="url(#p3381cc3310)" style="fill: none; stroke: #b0b0b0; stroke-opacity: 0.18; stroke-width: 0.6; stroke-linecap: square"/>
     </g>
     <g id="line2d_106">
      <g>
       <use xlink:href="#m1eee46c68a" x="451.275625" y="523.73" style="stroke: #000000; stroke-width: 0.8"/>
      </g>
     </g>
     <g id="text_51">
      <!-- 0.00 -->
      <g transform="translate(440.142812 538.328438) scale(0.1 -0.1)">
       <use xlink:href="#DejaVuSerif-30"/>
       <use xlink:href="#DejaVuSerif-2e" transform="translate(63.623047 0)"/>
       <use xlink:href="#DejaVuSerif-30" transform="translate(95.410156 0)"/>
       <use xlink:href="#DejaVuSerif-30" transform="translate(159.033203 0)"/>
      </g>
     </g>
    </g>
    <g id="xtick_26">
     <g id="line2d_107">
      <path d="M 494.396649 523.73 
L 494.396649 340.005862 
" clip-path="url(#p3381cc3310)" style="fill: none; stroke: #b0b0b0; stroke-opacity: 0.18; stroke-width: 0.6; stroke-linecap: square"/>
     </g>
     <g id="line2d_108">
      <g>
       <use xlink:href="#m1eee46c68a" x="494.396649" y="523.73" style="stroke: #000000; stroke-width: 0.8"/>
      </g>
     </g>
     <g id="text_52">
      <!-- 0.02 -->
      <g transform="translate(483.263837 538.328438) scale(0.1 -0.1)">
       <use xlink:href="#DejaVuSerif-30"/>
       <use xlink:href="#DejaVuSerif-2e" transform="translate(63.623047 0)"/>
       <use xlink:href="#DejaVuSerif-30" transform="translate(95.410156 0)"/>
       <use xlink:href="#DejaVuSerif-32" transform="translate(159.033203 0)"/>
      </g>
     </g>
    </g>
    <g id="xtick_27">
     <g id="line2d_109">
      <path d="M 537.517673 523.73 
L 537.517673 340.005862 
" clip-path="url(#p3381cc3310)" style="fill: none; stroke: #b0b0b0; stroke-opacity: 0.18; stroke-width: 0.6; stroke-linecap: square"/>
     </g>
     <g id="line2d_110">
      <g>
       <use xlink:href="#m1eee46c68a" x="537.517673" y="523.73" style="stroke: #000000; stroke-width: 0.8"/>
      </g>
     </g>
     <g id="text_53">
      <!-- 0.04 -->
      <g transform="translate(526.384861 538.328438) scale(0.1 -0.1)">
       <use xlink:href="#DejaVuSerif-30"/>
       <use xlink:href="#DejaVuSerif-2e" transform="translate(63.623047 0)"/>
       <use xlink:href="#DejaVuSerif-30" transform="translate(95.410156 0)"/>
       <use xlink:href="#DejaVuSerif-34" transform="translate(159.033203 0)"/>
      </g>
     </g>
    </g>
    <g id="xtick_28">
     <g id="line2d_111">
      <path d="M 580.638698 523.73 
L 580.638698 340.005862 
" clip-path="url(#p3381cc3310)" style="fill: none; stroke: #b0b0b0; stroke-opacity: 0.18; stroke-width: 0.6; stroke-linecap: square"/>
     </g>
     <g id="line2d_112">
      <g>
       <use xlink:href="#m1eee46c68a" x="580.638698" y="523.73" style="stroke: #000000; stroke-width: 0.8"/>
      </g>
     </g>
     <g id="text_54">
      <!-- 0.06 -->
      <g transform="translate(569.505885 538.328438) scale(0.1 -0.1)">
       <use xlink:href="#DejaVuSerif-30"/>
       <use xlink:href="#DejaVuSerif-2e" transform="translate(63.623047 0)"/>
       <use xlink:href="#DejaVuSerif-30" transform="translate(95.410156 0)"/>
       <use xlink:href="#DejaVuSerif-36" transform="translate(159.033203 0)"/>
      </g>
     </g>
    </g>
    <g id="xtick_29">
     <g id="line2d_113">
      <path d="M 623.759722 523.73 
L 623.759722 340.005862 
" clip-path="url(#p3381cc3310)" style="fill: none; stroke: #b0b0b0; stroke-opacity: 0.18; stroke-width: 0.6; stroke-linecap: square"/>
     </g>
     <g id="line2d_114">
      <g>
       <use xlink:href="#m1eee46c68a" x="623.759722" y="523.73" style="stroke: #000000; stroke-width: 0.8"/>
      </g>
     </g>
     <g id="text_55">
      <!-- 0.08 -->
      <g transform="translate(612.626909 538.328438) scale(0.1 -0.1)">
       <use xlink:href="#DejaVuSerif-30"/>
       <use xlink:href="#DejaVuSerif-2e" transform="translate(63.623047 0)"/>
       <use xlink:href="#DejaVuSerif-30" transform="translate(95.410156 0)"/>
       <use xlink:href="#DejaVuSerif-38" transform="translate(159.033203 0)"/>
      </g>
     </g>
    </g>
    <g id="xtick_30">
     <g id="line2d_115">
      <path d="M 666.880746 523.73 
L 666.880746 340.005862 
" clip-path="url(#p3381cc3310)" style="fill: none; stroke: #b0b0b0; stroke-opacity: 0.18; stroke-width: 0.6; stroke-linecap: square"/>
     </g>
     <g id="line2d_116">
      <g>
       <use xlink:href="#m1eee46c68a" x="666.880746" y="523.73" style="stroke: #000000; stroke-width: 0.8"/>
      </g>
     </g>
     <g id="text_56">
      <!-- 0.10 -->
      <g transform="translate(655.747933 538.328438) scale(0.1 -0.1)">
       <use xlink:href="#DejaVuSerif-30"/>
       <use xlink:href="#DejaVuSerif-2e" transform="translate(63.623047 0)"/>
       <use xlink:href="#DejaVuSerif-31" transform="translate(95.410156 0)"/>
       <use xlink:href="#DejaVuSerif-30" transform="translate(159.033203 0)"/>
      </g>
     </g>
    </g>
    <g id="xtick_31">
     <g id="line2d_117">
      <path d="M 710.00177 523.73 
L 710.00177 340.005862 
" clip-path="url(#p3381cc3310)" style="fill: none; stroke: #b0b0b0; stroke-opacity: 0.18; stroke-width: 0.6; stroke-linecap: square"/>
     </g>
     <g id="line2d_118">
      <g>
       <use xlink:href="#m1eee46c68a" x="710.00177" y="523.73" style="stroke: #000000; stroke-width: 0.8"/>
      </g>
     </g>
     <g id="text_57">
      <!-- 0.12 -->
      <g transform="translate(698.868958 538.328438) scale(0.1 -0.1)">
       <use xlink:href="#DejaVuSerif-30"/>
       <use xlink:href="#DejaVuSerif-2e" transform="translate(63.623047 0)"/>
       <use xlink:href="#DejaVuSerif-31" transform="translate(95.410156 0)"/>
       <use xlink:href="#DejaVuSerif-32" transform="translate(159.033203 0)"/>
      </g>
     </g>
    </g>
    <g id="xtick_32">
     <g id="line2d_119">
      <path d="M 753.122794 523.73 
L 753.122794 340.005862 
" clip-path="url(#p3381cc3310)" style="fill: none; stroke: #b0b0b0; stroke-opacity: 0.18; stroke-width: 0.6; stroke-linecap: square"/>
     </g>
     <g id="line2d_120">
      <g>
       <use xlink:href="#m1eee46c68a" x="753.122794" y="523.73" style="stroke: #000000; stroke-width: 0.8"/>
      </g>
     </g>
     <g id="text_58">
      <!-- 0.14 -->
      <g transform="translate(741.989982 538.328438) scale(0.1 -0.1)">
       <use xlink:href="#DejaVuSerif-30"/>
       <use xlink:href="#DejaVuSerif-2e" transform="translate(63.623047 0)"/>
       <use xlink:href="#DejaVuSerif-31" transform="translate(95.410156 0)"/>
       <use xlink:href="#DejaVuSerif-34" transform="translate(159.033203 0)"/>
      </g>
     </g>
    </g>
    <g id="text_59">
     <!-- w -->
     <g transform="translate(591.210826 552.766406) scale(0.11 -0.11)">
      <use xlink:href="#DejaVuSerif-77"/>
     </g>
    </g>
   </g>
   <g id="matplotlib.axis_8">
    <g id="ytick_21">
     <g id="line2d_121">
      <path d="M 436.811339 515.378906 
L 755.025625 515.378906 
" clip-path="url(#p3381cc3310)" style="fill: none; stroke: #b0b0b0; stroke-opacity: 0.18; stroke-width: 0.6; stroke-linecap: square"/>
     </g>
     <g id="line2d_122">
      <g>
       <use xlink:href="#mac62f1ec88" x="436.811339" y="515.378906" style="stroke: #000000; stroke-width: 0.8"/>
      </g>
     </g>
     <g id="text_60">
      <!-- 1.00 -->
      <g transform="translate(407.545714 519.178125) scale(0.1 -0.1)">
       <use xlink:href="#DejaVuSerif-31"/>
       <use xlink:href="#DejaVuSerif-2e" transform="translate(63.623047 0)"/>
       <use xlink:href="#DejaVuSerif-30" transform="translate(95.410156 0)"/>
       <use xlink:href="#DejaVuSerif-30" transform="translate(159.033203 0)"/>
      </g>
     </g>
    </g>
    <g id="ytick_22">
     <g id="line2d_123">
      <path d="M 436.811339 494.836405 
L 755.025625 494.836405 
" clip-path="url(#p3381cc3310)" style="fill: none; stroke: #b0b0b0; stroke-opacity: 0.18; stroke-width: 0.6; stroke-linecap: square"/>
     </g>
     <g id="line2d_124">
      <g>
       <use xlink:href="#mac62f1ec88" x="436.811339" y="494.836405" style="stroke: #000000; stroke-width: 0.8"/>
      </g>
     </g>
     <g id="text_61">
      <!-- 1.25 -->
      <g transform="translate(407.545714 498.635624) scale(0.1 -0.1)">
       <defs>
        <path id="DejaVuSerif-35" d="M 3219 4666 
L 3219 4153 
L 1081 4153 
L 1081 2816 
Q 1244 2928 1461 2984 
Q 1678 3041 1947 3041 
Q 2703 3041 3140 2622 
Q 3578 2203 3578 1478 
Q 3578 738 3136 323 
Q 2694 -91 1894 -91 
Q 1572 -91 1234 -12 
Q 897 66 544 225 
L 544 1131 
L 897 1131 
Q 925 688 1179 453 
Q 1434 219 1894 219 
Q 2388 219 2653 544 
Q 2919 869 2919 1478 
Q 2919 2084 2655 2407 
Q 2391 2731 1894 2731 
Q 1613 2731 1398 2631 
Q 1184 2531 1019 2322 
L 750 2322 
L 750 4666 
L 3219 4666 
z
" transform="scale(0.015625)"/>
       </defs>
       <use xlink:href="#DejaVuSerif-31"/>
       <use xlink:href="#DejaVuSerif-2e" transform="translate(63.623047 0)"/>
       <use xlink:href="#DejaVuSerif-32" transform="translate(95.410156 0)"/>
       <use xlink:href="#DejaVuSerif-35" transform="translate(159.033203 0)"/>
      </g>
     </g>
    </g>
    <g id="ytick_23">
     <g id="line2d_125">
      <path d="M 436.811339 474.293904 
L 755.025625 474.293904 
" clip-path="url(#p3381cc3310)" style="fill: none; stroke: #b0b0b0; stroke-opacity: 0.18; stroke-width: 0.6; stroke-linecap: square"/>
     </g>
     <g id="line2d_126">
      <g>
       <use xlink:href="#mac62f1ec88" x="436.811339" y="474.293904" style="stroke: #000000; stroke-width: 0.8"/>
      </g>
     </g>
     <g id="text_62">
      <!-- 1.50 -->
      <g transform="translate(407.545714 478.093123) scale(0.1 -0.1)">
       <use xlink:href="#DejaVuSerif-31"/>
       <use xlink:href="#DejaVuSerif-2e" transform="translate(63.623047 0)"/>
       <use xlink:href="#DejaVuSerif-35" transform="translate(95.410156 0)"/>
       <use xlink:href="#DejaVuSerif-30" transform="translate(159.033203 0)"/>
      </g>
     </g>
    </g>
    <g id="ytick_24">
     <g id="line2d_127">
      <path d="M 436.811339 453.751403 
L 755.025625 453.751403 
" clip-path="url(#p3381cc3310)" style="fill: none; stroke: #b0b0b0; stroke-opacity: 0.18; stroke-width: 0.6; stroke-linecap: square"/>
     </g>
     <g id="line2d_128">
      <g>
       <use xlink:href="#mac62f1ec88" x="436.811339" y="453.751403" style="stroke: #000000; stroke-width: 0.8"/>
      </g>
     </g>
     <g id="text_63">
      <!-- 1.75 -->
      <g transform="translate(407.545714 457.550622) scale(0.1 -0.1)">
       <defs>
        <path id="DejaVuSerif-37" d="M 3609 4347 
L 1784 0 
L 1319 0 
L 3059 4153 
L 903 4153 
L 903 3578 
L 538 3578 
L 538 4666 
L 3609 4666 
L 3609 4347 
z
" transform="scale(0.015625)"/>
       </defs>
       <use xlink:href="#DejaVuSerif-31"/>
       <use xlink:href="#DejaVuSerif-2e" transform="translate(63.623047 0)"/>
       <use xlink:href="#DejaVuSerif-37" transform="translate(95.410156 0)"/>
       <use xlink:href="#DejaVuSerif-35" transform="translate(159.033203 0)"/>
      </g>
     </g>
    </g>
    <g id="ytick_25">
     <g id="line2d_129">
      <path d="M 436.811339 433.208903 
L 755.025625 433.208903 
" clip-path="url(#p3381cc3310)" style="fill: none; stroke: #b0b0b0; stroke-opacity: 0.18; stroke-width: 0.6; stroke-linecap: square"/>
     </g>
     <g id="line2d_130">
      <g>
       <use xlink:href="#mac62f1ec88" x="436.811339" y="433.208903" style="stroke: #000000; stroke-width: 0.8"/>
      </g>
     </g>
     <g id="text_64">
      <!-- 2.00 -->
      <g transform="translate(407.545714 437.008121) scale(0.1 -0.1)">
       <use xlink:href="#DejaVuSerif-32"/>
       <use xlink:href="#DejaVuSerif-2e" transform="translate(63.623047 0)"/>
       <use xlink:href="#DejaVuSerif-30" transform="translate(95.410156 0)"/>
       <use xlink:href="#DejaVuSerif-30" transform="translate(159.033203 0)"/>
      </g>
     </g>
    </g>
    <g id="ytick_26">
     <g id="line2d_131">
      <path d="M 436.811339 412.666402 
L 755.025625 412.666402 
" clip-path="url(#p3381cc3310)" style="fill: none; stroke: #b0b0b0; stroke-opacity: 0.18; stroke-width: 0.6; stroke-linecap: square"/>
     </g>
     <g id="line2d_132">
      <g>
       <use xlink:href="#mac62f1ec88" x="436.811339" y="412.666402" style="stroke: #000000; stroke-width: 0.8"/>
      </g>
     </g>
     <g id="text_65">
      <!-- 2.25 -->
      <g transform="translate(407.545714 416.46562) scale(0.1 -0.1)">
       <use xlink:href="#DejaVuSerif-32"/>
       <use xlink:href="#DejaVuSerif-2e" transform="translate(63.623047 0)"/>
       <use xlink:href="#DejaVuSerif-32" transform="translate(95.410156 0)"/>
       <use xlink:href="#DejaVuSerif-35" transform="translate(159.033203 0)"/>
      </g>
     </g>
    </g>
    <g id="ytick_27">
     <g id="line2d_133">
      <path d="M 436.811339 392.123901 
L 755.025625 392.123901 
" clip-path="url(#p3381cc3310)" style="fill: none; stroke: #b0b0b0; stroke-opacity: 0.18; stroke-width: 0.6; stroke-linecap: square"/>
     </g>
     <g id="line2d_134">
      <g>
       <use xlink:href="#mac62f1ec88" x="436.811339" y="392.123901" style="stroke: #000000; stroke-width: 0.8"/>
      </g>
     </g>
     <g id="text_66">
      <!-- 2.50 -->
      <g transform="translate(407.545714 395.92312) scale(0.1 -0.1)">
       <use xlink:href="#DejaVuSerif-32"/>
       <use xlink:href="#DejaVuSerif-2e" transform="translate(63.623047 0)"/>
       <use xlink:href="#DejaVuSerif-35" transform="translate(95.410156 0)"/>
       <use xlink:href="#DejaVuSerif-30" transform="translate(159.033203 0)"/>
      </g>
     </g>
    </g>
    <g id="ytick_28">
     <g id="line2d_135">
      <path d="M 436.811339 371.5814 
L 755.025625 371.5814 
" clip-path="url(#p3381cc3310)" style="fill: none; stroke: #b0b0b0; stroke-opacity: 0.18; stroke-width: 0.6; stroke-linecap: square"/>
     </g>
     <g id="line2d_136">
      <g>
       <use xlink:href="#mac62f1ec88" x="436.811339" y="371.5814" style="stroke: #000000; stroke-width: 0.8"/>
      </g>
     </g>
     <g id="text_67">
      <!-- 2.75 -->
      <g transform="translate(407.545714 375.380619) scale(0.1 -0.1)">
       <use xlink:href="#DejaVuSerif-32"/>
       <use xlink:href="#DejaVuSerif-2e" transform="translate(63.623047 0)"/>
       <use xlink:href="#DejaVuSerif-37" transform="translate(95.410156 0)"/>
       <use xlink:href="#DejaVuSerif-35" transform="translate(159.033203 0)"/>
      </g>
     </g>
    </g>
    <g id="ytick_29">
     <g id="line2d_137">
      <path d="M 436.811339 351.038899 
L 755.025625 351.038899 
" clip-path="url(#p3381cc3310)" style="fill: none; stroke: #b0b0b0; stroke-opacity: 0.18; stroke-width: 0.6; stroke-linecap: square"/>
     </g>
     <g id="line2d_138">
      <g>
       <use xlink:href="#mac62f1ec88" x="436.811339" y="351.038899" style="stroke: #000000; stroke-width: 0.8"/>
      </g>
     </g>
     <g id="text_68">
      <!-- 3.00 -->
      <g transform="translate(407.545714 354.838118) scale(0.1 -0.1)">
       <use xlink:href="#DejaVuSerif-33"/>
       <use xlink:href="#DejaVuSerif-2e" transform="translate(63.623047 0)"/>
       <use xlink:href="#DejaVuSerif-30" transform="translate(95.410156 0)"/>
       <use xlink:href="#DejaVuSerif-30" transform="translate(159.033203 0)"/>
      </g>
     </g>
    </g>
   </g>
   <g id="line2d_139">
    <path d="M 451.275625 449.526879 
L 454.171378 455.048495 
L 457.067131 460.048051 
L 459.962884 464.57615 
L 462.858637 468.681059 
L 465.754389 472.406203 
L 468.650142 475.790564 
L 471.835471 479.161327 
L 475.020799 482.203284 
L 478.206127 484.95297 
L 481.68103 487.657067 
L 485.155934 490.088327 
L 488.920413 492.451291 
L 492.974467 494.720118 
L 497.028521 496.739535 
L 501.37215 498.662864 
L 506.005355 500.477204 
L 510.928135 502.174025 
L 516.430065 503.830026 
L 522.221571 505.340565 
L 528.592227 506.770282 
L 535.542034 508.098331 
L 543.070992 509.310676 
L 551.468675 510.434184 
L 560.735084 511.445238 
L 571.159795 512.35083 
L 582.742806 513.126934 
L 595.773694 513.772461 
L 611.121185 514.300659 
L 630.233154 514.724492 
L 654.557478 515.031303 
L 689.016938 515.225727 
L 740.561339 515.316411 
L 740.561339 515.316411 
" clip-path="url(#p3381cc3310)" style="fill: none; stroke: #1f1f1f; stroke-width: 2; stroke-linecap: square"/>
   </g>
   <g id="line2d_140">
    <path d="M 551.468675 523.73 
L 551.468675 340.005862 
" clip-path="url(#p3381cc3310)" style="fill: none; stroke-dasharray: 1,1.65; stroke-dashoffset: 0; stroke: #1f1f1f; stroke-opacity: 0.28"/>
   </g>
   <g id="line2d_141">
    <path d="M 740.561339 523.73 
L 740.561339 340.005862 
" clip-path="url(#p3381cc3310)" style="fill: none; stroke-dasharray: 1,1.65; stroke-dashoffset: 0; stroke: #1f1f1f; stroke-opacity: 0.28"/>
   </g>
   <g id="line2d_142">
    <path d="M 451.275625 348.356959 
L 452.616412 371.812718 
L 453.957199 391.202224 
L 455.297986 407.262084 
L 456.638774 420.635167 
L 457.979561 431.833714 
L 459.320348 441.266006 
L 460.661135 449.257799 
L 462.001922 456.069467 
L 463.566174 462.80083 
L 465.130426 468.470292 
L 466.694677 473.281954 
L 468.258929 477.395646 
L 469.823181 480.937293 
L 471.610897 484.411539 
L 473.398613 487.385687 
L 475.186329 489.951186 
L 477.19751 492.437824 
L 479.208691 494.578034 
L 481.443336 496.625168 
L 483.901446 498.5506 
L 486.359555 500.199437 
L 489.04113 501.743393 
L 492.169633 503.274762 
L 495.521601 504.658927 
L 499.320498 505.97549 
L 503.566324 507.199874 
L 508.259079 508.319079 
L 513.622228 509.368388 
L 519.879234 510.359178 
L 527.030099 511.263122 
L 535.521751 512.105936 
L 545.577655 512.872186 
L 557.644739 513.559141 
L 572.169933 514.154937 
L 590.047095 514.655355 
L 612.170083 515.040969 
L 639.879684 515.290924 
L 674.516686 515.378903 
L 674.516686 515.378903 
" clip-path="url(#p3381cc3310)" style="fill: none; stroke-dasharray: 7.4,3.2; stroke-dashoffset: 0; stroke: #8a4f3d; stroke-width: 2"/>
   </g>
   <g id="line2d_143">
    <path d="M 520.549628 523.73 
L 520.549628 340.005862 
" clip-path="url(#p3381cc3310)" style="fill: none; stroke-dasharray: 6.4,1.6,1,1.6; stroke-dashoffset: 0; stroke: #8a4f3d; stroke-opacity: 0.28"/>
   </g>
   <g id="line2d_144">
    <path d="M 674.516686 523.73 
L 674.516686 340.005862 
" clip-path="url(#p3381cc3310)" style="fill: none; stroke-dasharray: 6.4,1.6,1,1.6; stroke-dashoffset: 0; stroke: #8a4f3d; stroke-opacity: 0.28"/>
   </g>
   <g id="patch_12">
    <path d="M 436.811339 523.73 
L 436.811339 340.005862 
" style="fill: none; stroke: #000000; stroke-width: 0.8; stroke-linejoin: miter; stroke-linecap: square"/>
   </g>
   <g id="patch_13">
    <path d="M 436.811339 523.73 
L 755.025625 523.73 
" style="fill: none; stroke: #000000; stroke-width: 0.8; stroke-linejoin: miter; stroke-linecap: square"/>
   </g>
   <g id="text_69">
    <!-- D. Cash value p'(w) -->
    <g transform="translate(541.888717 330.005862) scale(0.11 -0.11)">
     <defs>
      <path id="DejaVuSerif-44" d="M 1581 331 
L 2163 331 
Q 3072 331 3558 850 
Q 4044 1369 4044 2338 
Q 4044 3306 3559 3818 
Q 3075 4331 2163 4331 
L 1581 4331 
L 1581 331 
z
M 353 0 
L 353 331 
L 947 331 
L 947 4331 
L 353 4331 
L 353 4666 
L 2209 4666 
Q 3416 4666 4089 4050 
Q 4763 3434 4763 2338 
Q 4763 1238 4088 619 
Q 3413 0 2209 0 
L 353 0 
z
" transform="scale(0.015625)"/>
      <path id="DejaVuSerif-68" d="M 263 0 
L 263 331 
L 781 331 
L 781 4531 
L 231 4531 
L 231 4863 
L 1356 4863 
L 1356 2731 
Q 1516 3069 1770 3241 
Q 2025 3413 2363 3413 
Q 2913 3413 3172 3097 
Q 3431 2781 3431 2113 
L 3431 331 
L 3944 331 
L 3944 0 
L 2356 0 
L 2356 331 
L 2853 331 
L 2853 1931 
Q 2853 2541 2704 2764 
Q 2556 2988 2175 2988 
Q 1775 2988 1565 2697 
Q 1356 2406 1356 1850 
L 1356 331 
L 1856 331 
L 1856 0 
L 263 0 
z
" transform="scale(0.015625)"/>
      <path id="DejaVuSerif-27" d="M 1125 4666 
L 1125 2931 
L 628 2931 
L 628 4666 
L 1125 4666 
z
" transform="scale(0.015625)"/>
     </defs>
     <use xlink:href="#DejaVuSerif-44"/>
     <use xlink:href="#DejaVuSerif-2e" transform="translate(76.550781 0)"/>
     <use xlink:href="#DejaVuSerif-20" transform="translate(108.337891 0)"/>
     <use xlink:href="#DejaVuSerif-43" transform="translate(140.125 0)"/>
     <use xlink:href="#DejaVuSerif-61" transform="translate(216.638672 0)"/>
     <use xlink:href="#DejaVuSerif-73" transform="translate(276.257812 0)"/>
     <use xlink:href="#DejaVuSerif-68" transform="translate(327.576172 0)"/>
     <use xlink:href="#DejaVuSerif-20" transform="translate(391.980469 0)"/>
     <use xlink:href="#DejaVuSerif-76" transform="translate(423.767578 0)"/>
     <use xlink:href="#DejaVuSerif-61" transform="translate(480.261719 0)"/>
     <use xlink:href="#DejaVuSerif-6c" transform="translate(539.880859 0)"/>
     <use xlink:href="#DejaVuSerif-75" transform="translate(571.863281 0)"/>
     <use xlink:href="#DejaVuSerif-65" transform="translate(636.267578 0)"/>
     <use xlink:href="#DejaVuSerif-20" transform="translate(695.447266 0)"/>
     <use xlink:href="#DejaVuSerif-70" transform="translate(727.234375 0)"/>
     <use xlink:href="#DejaVuSerif-27" transform="translate(791.248047 0)"/>
     <use xlink:href="#DejaVuSerif-28" transform="translate(818.738281 0)"/>
     <use xlink:href="#DejaVuSerif-77" transform="translate(857.751953 0)"/>
     <use xlink:href="#DejaVuSerif-29" transform="translate(943.347656 0)"/>
    </g>
   </g>
  </g>
  <g id="legend_1">
   <g id="line2d_145">
    <path d="M 210.382031 20.653516 
L 223.682031 20.653516 
L 236.982031 20.653516 
" style="fill: none; stroke: #1f1f1f; stroke-width: 2; stroke-linecap: square"/>
   </g>
   <g id="text_70">
    <!-- Costly margin requirement -->
    <g transform="translate(244.582031 23.978516) scale(0.095 -0.095)">
     <defs>
      <path id="DejaVuSerif-79" d="M 1381 -609 
L 1600 -56 
L 359 2988 
L -19 2988 
L -19 3322 
L 1509 3322 
L 1509 2988 
L 978 2988 
L 1913 703 
L 2847 2988 
L 2350 2988 
L 2350 3322 
L 3597 3322 
L 3597 2988 
L 3225 2988 
L 1703 -750 
Q 1547 -1138 1356 -1280 
Q 1166 -1422 819 -1422 
Q 672 -1422 517 -1397 
Q 363 -1372 206 -1325 
L 206 -691 
L 500 -691 
Q 519 -903 608 -995 
Q 697 -1088 884 -1088 
Q 1056 -1088 1161 -992 
Q 1266 -897 1381 -609 
z
" transform="scale(0.015625)"/>
      <path id="DejaVuSerif-71" d="M 3359 2988 
L 3359 -997 
L 3909 -997 
L 3909 -1331 
L 2241 -1331 
L 2241 -997 
L 2784 -997 
L 2784 519 
Q 2616 206 2355 57 
Q 2094 -91 1709 -91 
Q 1097 -91 708 395 
Q 319 881 319 1663 
Q 319 2444 706 2928 
Q 1094 3413 1709 3413 
Q 2094 3413 2355 3264 
Q 2616 3116 2784 2803 
L 2784 3322 
L 3909 3322 
L 3909 2988 
L 3359 2988 
z
M 2784 1825 
Q 2784 2422 2554 2737 
Q 2325 3053 1888 3053 
Q 1444 3053 1217 2703 
Q 991 2353 991 1663 
Q 991 975 1217 622 
Q 1444 269 1888 269 
Q 2325 269 2554 583 
Q 2784 897 2784 1497 
L 2784 1825 
z
" transform="scale(0.015625)"/>
     </defs>
     <use xlink:href="#DejaVuSerif-43"/>
     <use xlink:href="#DejaVuSerif-6f" transform="translate(76.513672 0)"/>
     <use xlink:href="#DejaVuSerif-73" transform="translate(136.71875 0)"/>
     <use xlink:href="#DejaVuSerif-74" transform="translate(188.037109 0)"/>
     <use xlink:href="#DejaVuSerif-6c" transform="translate(228.222656 0)"/>
     <use xlink:href="#DejaVuSerif-79" transform="translate(260.205078 0)"/>
     <use xlink:href="#DejaVuSerif-20" transform="translate(316.699219 0)"/>
     <use xlink:href="#DejaVuSerif-6d" transform="translate(348.486328 0)"/>
     <use xlink:href="#DejaVuSerif-61" transform="translate(443.310547 0)"/>
     <use xlink:href="#DejaVuSerif-72" transform="translate(502.929688 0)"/>
     <use xlink:href="#DejaVuSerif-67" transform="translate(550.732422 0)"/>
     <use xlink:href="#DejaVuSerif-69" transform="translate(614.746094 0)"/>
     <use xlink:href="#DejaVuSerif-6e" transform="translate(646.728516 0)"/>
     <use xlink:href="#DejaVuSerif-20" transform="translate(711.132812 0)"/>
     <use xlink:href="#DejaVuSerif-72" transform="translate(742.919922 0)"/>
     <use xlink:href="#DejaVuSerif-65" transform="translate(790.722656 0)"/>
     <use xlink:href="#DejaVuSerif-71" transform="translate(849.902344 0)"/>
     <use xlink:href="#DejaVuSerif-75" transform="translate(913.916016 0)"/>
     <use xlink:href="#DejaVuSerif-69" transform="translate(978.320312 0)"/>
     <use xlink:href="#DejaVuSerif-72" transform="translate(1010.302734 0)"/>
     <use xlink:href="#DejaVuSerif-65" transform="translate(1058.105469 0)"/>
     <use xlink:href="#DejaVuSerif-6d" transform="translate(1117.285156 0)"/>
     <use xlink:href="#DejaVuSerif-65" transform="translate(1212.109375 0)"/>
     <use xlink:href="#DejaVuSerif-6e" transform="translate(1271.289062 0)"/>
     <use xlink:href="#DejaVuSerif-74" transform="translate(1335.693359 0)"/>
    </g>
   </g>
   <g id="line2d_146">
    <path d="M 390.493125 20.653516 
L 403.793125 20.653516 
L 417.093125 20.653516 
" style="fill: none; stroke-dasharray: 7.4,3.2; stroke-dashoffset: 0; stroke: #8a4f3d; stroke-width: 2"/>
   </g>
   <g id="text_71">
    <!-- No margin requirement -->
    <g transform="translate(424.693125 23.978516) scale(0.095 -0.095)">
     <defs>
      <path id="DejaVuSerif-4e" d="M 313 0 
L 313 331 
L 941 331 
L 941 4331 
L 313 4331 
L 313 4666 
L 1509 4666 
L 4306 984 
L 4306 4331 
L 3681 4331 
L 3681 4666 
L 5319 4666 
L 5319 4331 
L 4691 4331 
L 4691 -91 
L 4313 -91 
L 1325 3841 
L 1325 331 
L 1953 331 
L 1953 0 
L 313 0 
z
" transform="scale(0.015625)"/>
     </defs>
     <use xlink:href="#DejaVuSerif-4e"/>
     <use xlink:href="#DejaVuSerif-6f" transform="translate(87.5 0)"/>
     <use xlink:href="#DejaVuSerif-20" transform="translate(147.705078 0)"/>
     <use xlink:href="#DejaVuSerif-6d" transform="translate(179.492188 0)"/>
     <use xlink:href="#DejaVuSerif-61" transform="translate(274.316406 0)"/>
     <use xlink:href="#DejaVuSerif-72" transform="translate(333.935547 0)"/>
     <use xlink:href="#DejaVuSerif-67" transform="translate(381.738281 0)"/>
     <use xlink:href="#DejaVuSerif-69" transform="translate(445.751953 0)"/>
     <use xlink:href="#DejaVuSerif-6e" transform="translate(477.734375 0)"/>
     <use xlink:href="#DejaVuSerif-20" transform="translate(542.138672 0)"/>
     <use xlink:href="#DejaVuSerif-72" transform="translate(573.925781 0)"/>
     <use xlink:href="#DejaVuSerif-65" transform="translate(621.728516 0)"/>
     <use xlink:href="#DejaVuSerif-71" transform="translate(680.908203 0)"/>
     <use xlink:href="#DejaVuSerif-75" transform="translate(744.921875 0)"/>
     <use xlink:href="#DejaVuSerif-69" transform="translate(809.326172 0)"/>
     <use xlink:href="#DejaVuSerif-72" transform="translate(841.308594 0)"/>
     <use xlink:href="#DejaVuSerif-65" transform="translate(889.111328 0)"/>
     <use xlink:href="#DejaVuSerif-6d" transform="translate(948.291016 0)"/>
     <use xlink:href="#DejaVuSerif-65" transform="translate(1043.115234 0)"/>
     <use xlink:href="#DejaVuSerif-6e" transform="translate(1102.294922 0)"/>
     <use xlink:href="#DejaVuSerif-74" transform="translate(1166.699219 0)"/>
    </g>
   </g>
  </g>
 </g>
 <defs>
  <clipPath id="pfef8e413b3">
   <rect x="42.225625" y="97.49" width="318.214286" height="183.724138"/>
  </clipPath>
  <clipPath id="p5d71e0e915">
   <rect x="436.811339" y="97.49" width="318.214286" height="183.724138"/>
  </clipPath>
  <clipPath id="p42218e18ca">
   <rect x="42.225625" y="340.005862" width="318.214286" height="183.724138"/>
  </clipPath>
  <clipPath id="p3381cc3310">
   <rect x="436.811339" y="340.005862" width="318.214286" height="183.724138"/>
  </clipPath>
 </defs>
</svg>
